<svg width="1969" height="1152" viewBox="0 0 1969 1152" fill="none" xmlns="http://www.w3.org/2000/svg">
<path d="M1004.62 1145.12C1008.6 1124.21 1020.97 1105.04 1038.35 1092.8" stroke="#04D361" stroke-width="0.779" stroke-miterlimit="10"/>
<path d="M1004.08 1151C1004.83 1133.54 1011.57 1091.51 1027.51 1065.19" stroke="#04D361" stroke-width="0.779" stroke-miterlimit="10"/>
<path d="M1004.32 1148.84C1007.07 1117.7 1006.83 1083.29 1001.98 1052.38" stroke="#04D361" stroke-width="0.779" stroke-miterlimit="10"/>
<path d="M1108.85 1092.59C1111.01 1087.76 1108.73 1081.79 1104.66 1078.39C1100.61 1075 1095.19 1073.74 1089.92 1073.23L1108.85 1092.59ZM1108.85 1092.59C1106.24 1098.47 1098.72 1100.21 1092.31 1100.12L1108.85 1092.59ZM1039.9 1084.1L1039.9 1084.1C1043.58 1077.53 1048.55 1070.95 1055.71 1069.56C1058.69 1068.97 1061.69 1069.36 1064.75 1070.06C1066.04 1070.36 1067.33 1070.71 1068.63 1071.06C1068.87 1071.12 1069.11 1071.19 1069.35 1071.25C1070.9 1071.67 1072.46 1072.07 1074.03 1072.38L1074.03 1072.38C1076.66 1072.88 1079.32 1073.09 1081.97 1073.24C1082.68 1073.28 1083.39 1073.31 1084.1 1073.35C1086.03 1073.45 1087.96 1073.55 1089.87 1073.73L1089.87 1073.73C1095.11 1074.24 1100.41 1075.49 1104.34 1078.78L1104.34 1078.78C1108.29 1082.07 1110.43 1087.82 1108.39 1092.38L1108.39 1092.38C1107.16 1095.17 1104.76 1097 1101.83 1098.12C1098.9 1099.25 1095.48 1099.66 1092.32 1099.62L1092.32 1099.62C1086.81 1099.54 1081.36 1098.66 1075.89 1097.62C1074.55 1097.36 1073.2 1097.09 1071.85 1096.83C1067.73 1096.01 1063.59 1095.18 1059.42 1094.64L1059.42 1094.64C1054.09 1093.95 1048.59 1093.73 1043.22 1094.52L1043.22 1094.52C1042.16 1094.68 1040.98 1095.05 1039.77 1095.5C1038.96 1095.81 1038.12 1096.15 1037.29 1096.49C1036.88 1096.66 1036.47 1096.82 1036.06 1096.99C1034.82 1097.48 1033.62 1097.93 1032.5 1098.22C1031.8 1098.41 1031.15 1098.53 1030.56 1098.55C1034.12 1094.3 1036.75 1089.65 1039.45 1084.89C1039.6 1084.63 1039.75 1084.37 1039.9 1084.1Z" fill="#04D361" stroke="#04D361"/>
<path d="M1060.78 1015.18L1060.78 1015.18C1065.72 1013.8 1070.83 1013.87 1076.03 1014.33C1077.86 1014.49 1079.7 1014.7 1081.56 1014.92C1084.96 1015.31 1088.4 1015.7 1091.79 1015.8L1091.79 1015.8C1093.42 1015.84 1095.06 1015.81 1096.69 1015.79C1097.49 1015.77 1098.3 1015.76 1099.1 1015.76C1101.52 1015.74 1103.92 1015.8 1106.29 1016.16C1111.01 1016.86 1115.75 1019.01 1118.13 1023.03L1118.13 1023.03C1119.98 1026.14 1120.04 1029.88 1118.83 1033.37C1117.62 1036.86 1115.15 1040.05 1112.03 1042.03C1105.74 1046.02 1097.76 1046.24 1090.21 1045.41C1088.04 1045.17 1085.9 1044.85 1083.74 1044.53C1082.13 1044.29 1080.51 1044.05 1078.87 1043.85C1075.08 1043.36 1071.26 1043.06 1067.41 1043.36C1057.6 1044.12 1048.43 1048.77 1040.8 1054.87C1038.05 1057.06 1035.58 1059.87 1033.15 1062.63C1032.88 1062.92 1032.62 1063.22 1032.36 1063.51C1029.78 1066.43 1027.22 1069.22 1024.35 1071.19C1024.33 1071.14 1024.31 1071.08 1024.29 1071.01C1024.23 1070.74 1024.2 1070.38 1024.22 1069.94C1024.27 1069.05 1024.49 1067.89 1024.86 1066.52C1025.6 1063.8 1026.9 1060.37 1028.36 1056.87C1030.58 1051.55 1033.17 1046.13 1034.72 1042.88C1035.21 1041.84 1035.6 1041.03 1035.84 1040.5C1041.01 1029.29 1049.1 1018.45 1060.78 1015.18Z" fill="#04D361" stroke="#04D361"/>
<path d="M1010.59 1022.25L1010.59 1022.25C1011.6 1028.39 1010.57 1034.63 1008.69 1040.56C1008.57 1040.95 1008.42 1041.46 1008.24 1042.05C1007.68 1043.89 1006.89 1046.53 1005.91 1049C1005.27 1050.64 1004.57 1052.16 1003.82 1053.32C1003.44 1053.89 1003.07 1054.36 1002.7 1054.7C1002.33 1055.04 1001.99 1055.22 1001.68 1055.28L1001.67 1055.28C1000.95 1055.42 999.972 1055.18 998.807 1054.6C997.661 1054.02 996.416 1053.17 995.196 1052.2C992.76 1050.28 990.487 1047.98 989.398 1046.85C985.996 1043.26 983.279 1039.03 981.597 1034.39L981.596 1034.39C979.643 1029.07 978.973 1023.41 978.32 1017.67L978.283 1017.34C977.645 1011.73 977 1006.05 975.127 1000.68L975.127 1000.67C973.001 994.599 969.398 989.192 965.853 983.871C964.909 982.454 963.969 981.044 963.062 979.628C958.725 972.86 954.903 965.405 954.961 957.49C955.02 949.569 960.049 941.301 967.672 939.948L967.673 939.948C972.664 939.052 977.826 941.157 981.963 944.294L981.964 944.295C987.835 948.726 992.115 955.198 993.945 962.35C995.039 966.658 995.248 971.122 995.451 975.645L995.457 975.781C995.656 980.243 995.859 984.761 996.94 989.138C998.281 994.624 1000.95 999.67 1003.58 1004.64C1003.77 1005.01 1003.97 1005.38 1004.16 1005.75C1006.99 1011.11 1009.65 1016.42 1010.59 1022.25Z" fill="#04D361" stroke="#04D361"/>
<path d="M1004.02 1145.9C1001.98 1118.39 994.908 1087.31 979.538 1064.41" stroke="#04D361" stroke-width="0.779" stroke-miterlimit="10"/>
<path d="M976.91 1043.34L976.911 1043.34C979.143 1049.57 980.516 1056.08 981.653 1062.58L981.653 1062.58C981.708 1062.89 981.799 1063.28 981.898 1063.7C981.939 1063.87 981.981 1064.05 982.023 1064.23C982.167 1064.86 982.309 1065.55 982.386 1066.22C982.464 1066.89 982.473 1067.51 982.367 1068.04C982.263 1068.55 982.055 1068.93 981.728 1069.17L981.728 1069.17C981.385 1069.43 980.919 1069.51 980.325 1069.42C979.729 1069.33 979.058 1069.08 978.374 1068.72C977.011 1068.02 975.707 1067 975.05 1066.41C973.869 1065.33 972.842 1064.1 971.845 1062.81C971.476 1062.33 971.108 1061.84 970.738 1061.34C970.117 1060.52 969.49 1059.68 968.842 1058.88L968.841 1058.88C960.19 1048.24 946.443 1043.05 932.99 1041.12C926.262 1040.15 919.48 1039.9 912.704 1039.79C910.925 1039.76 909.147 1039.74 907.371 1039.72C902.372 1039.67 897.385 1039.62 892.41 1039.34L892.407 1039.34C889.344 1039.19 886.248 1038.86 883.894 1037.18C880.744 1034.93 879.57 1030.48 880.465 1026.57C881.361 1022.7 884 1019.37 887.105 1016.7L887.105 1016.7C893.984 1010.79 903.07 1007.84 912.159 1007.25C921.249 1006.65 930.386 1008.29 939.23 1010.68L939.23 1010.68C947.749 1012.99 956.202 1016.11 962.888 1021.74C969.51 1027.34 973.993 1035.11 976.91 1043.34ZM982.381 1063.56C982.284 1063.15 982.198 1062.79 982.145 1062.49L892.382 1039.84C897.369 1040.12 902.373 1040.17 907.375 1040.22C915.925 1040.31 924.47 1040.4 932.919 1041.61C946.312 1043.53 959.914 1048.69 968.453 1059.19C969.097 1059.99 969.713 1060.81 970.328 1061.63C971.686 1063.44 973.044 1065.26 974.715 1066.78C976.063 1067.98 980.078 1071.01 982.026 1069.57C983.534 1068.46 982.838 1065.51 982.381 1063.56Z" fill="#04D361" stroke="#04D361"/>
<path d="M1003.45 1148.84C1002.25 1124.84 991.463 1101.44 974.026 1084.94" stroke="#04D361" stroke-width="0.779" stroke-miterlimit="10"/>
<path d="M977.641 1087.79C977.663 1087.82 977.686 1087.86 977.708 1087.89C969.107 1084.86 959.188 1084.95 950.412 1085.04C939.867 1085.13 929.321 1087.09 919.467 1090.89L919.465 1090.89C918.198 1091.39 916.942 1091.91 915.691 1092.43C910.81 1094.46 905.998 1096.45 900.836 1096.74C899.065 1096.82 897.136 1096.57 895.532 1095.89C893.933 1095.22 892.698 1094.13 892.201 1092.56C891.441 1090.08 892.788 1087.42 894.49 1085.15L894.491 1085.14C897.927 1080.52 902.347 1076.74 906.788 1072.96C912.559 1068.05 918.544 1063.08 925.794 1061.66C932.31 1060.4 939.056 1062.22 945.608 1064.06C952.348 1065.95 959.282 1068.06 965.432 1071.34C965.883 1071.58 966.321 1071.81 966.758 1072.07L966.757 1072.07L966.769 1072.08C969.672 1073.72 971.559 1076.55 973.458 1079.45C973.734 1079.87 974.11 1080.64 974.56 1081.61C974.704 1081.92 974.855 1082.25 975.012 1082.59C975.335 1083.29 975.68 1084.04 976.032 1084.78C976.555 1085.86 977.104 1086.94 977.641 1087.79Z" fill="#04D361" stroke="#04D361"/>
<path d="M1732.68 1050.54L1732.68 1050.54C1729.34 1053.85 1725.18 1055.8 1720.92 1057.47C1719.9 1057.87 1718.89 1058.25 1717.87 1058.63C1714.59 1059.86 1711.34 1061.09 1708.33 1062.8L1732.68 1050.54ZM1732.68 1050.54C1737.42 1045.82 1739.55 1039.26 1741.59 1033.01C1741.87 1032.13 1742.16 1031.25 1742.45 1030.39C1744.81 1023.34 1748.3 1016 1754.74 1012.89C1762.27 1009.27 1770.8 1012.84 1777.68 1017.27C1778.49 1017.79 1779.3 1018.33 1780.12 1018.86C1782.77 1020.62 1785.5 1022.41 1788.33 1023.86C1792.05 1025.76 1796 1027.08 1800.32 1026.92C1803.78 1026.8 1807.13 1025.73 1810.41 1024.66C1810.51 1024.63 1810.61 1024.6 1810.71 1024.56C1813.91 1023.52 1817.04 1022.5 1820.24 1022.27C1829.33 1021.66 1837.12 1027.48 1844.18 1033.2L1844.18 1033.2M1732.68 1050.54L1844.18 1033.2M1844.18 1033.2C1849.3 1037.33 1854.49 1041.7 1856.21 1047.95C1858.3 1055.54 1854.44 1064.44 1848.07 1069.75L1848.07 1069.75C1841.71 1075.09 1833.33 1077.26 1825.28 1077.44L1825.28 1077.44C1824.28 1077.46 1823.26 1077.46 1822.21 1077.47C1819.43 1077.48 1816.54 1077.5 1813.8 1077.88C1810.02 1078.41 1806.44 1079.65 1803.74 1082.64L1803.74 1082.64C1801.09 1085.57 1800.15 1089.3 1799.42 1093.04C1799.31 1093.62 1799.21 1094.19 1799.1 1094.76C1798.51 1097.96 1797.93 1101.11 1796.51 1103.9M1844.18 1033.2L1796.51 1103.9M1796.51 1103.9C1793.05 1110.61 1785.05 1114.1 1777.72 1114.07C1770.47 1114.04 1763.67 1111.31 1756.94 1108.61L1756.66 1108.49C1749.87 1105.77 1742.7 1103.02 1735.09 1103.36C1728.03 1103.66 1721.26 1106.61 1714.66 1109.48C1713.36 1110.04 1712.08 1110.6 1710.8 1111.14L1710.8 1111.14C1707.41 1112.56 1702.58 1114.55 1697.95 1115.32C1693.3 1116.09 1689.04 1115.59 1686.55 1112.32L1686.55 1112.31C1685.44 1110.86 1684.9 1108.93 1684.8 1106.69C1684.7 1104.45 1685.02 1101.94 1685.58 1099.39C1686.67 1094.46 1688.62 1089.45 1689.96 1086.02C1690.01 1085.91 1690.05 1085.79 1690.1 1085.68C1693.73 1076.41 1699.81 1067.67 1708.33 1062.8L1796.51 1103.9Z" fill="#04D361" stroke="#04D361"/>
<path d="M1687.59 1111.81C1727.47 1077.52 1774 1054.8 1824.22 1045.14" stroke="white" stroke-width="0.7047" stroke-miterlimit="10" stroke-linecap="round" stroke-linejoin="round"/>
<path d="M1727.02 1059.06C1727.95 1047.75 1725.82 1035.96 1729.54 1025.25C1736.16 1006.17 1759.11 996.21 1764.86 976.858C1771.75 953.727 1750.72 930.115 1754.38 906.263C1755.9 896.213 1761.69 887.362 1765.28 877.851C1768.88 868.341 1769.81 856.43 1762.83 849.019C1755.51 841.279 1742.24 842.179 1733.55 848.359C1724.86 854.54 1719.86 864.561 1715.79 874.431C1711.74 884.302 1708.18 894.623 1701.32 902.813C1688.82 917.724 1666.35 924.265 1659.52 942.476C1652.57 961.017 1665.72 980.639 1668.06 1000.29C1669.83 1015.17 1665.3 1029.99 1661.26 1044.45C1657.24 1058.91 1653.68 1074.22 1657.36 1088.74C1662.28 1108.09 1679.68 1120.42 1696.37 1108C1712.88 1095.79 1725.31 1080.34 1727.02 1059.06Z" fill="#04D361"/>
<path d="M1685.79 1112.74C1679.17 1043.67 1694.33 968.758 1729.75 909.114" stroke="white" stroke-width="1.1364" stroke-miterlimit="10" stroke-linecap="round" stroke-linejoin="round"/>
<path d="M1641.69 1086.7C1634.41 1076.41 1630.25 1063.53 1620.36 1055.7C1609.04 1046.7 1593.34 1046.61 1578.95 1045.44C1564.54 1044.27 1548.3 1040.19 1541.62 1027.35C1537.97 1020.3 1537.97 1011.93 1535.42 1004.43C1532.6 996.18 1526.85 989.339 1522.81 981.629C1518.79 973.918 1516.67 964.107 1521.34 956.757C1526.07 949.316 1536.44 947.126 1544.92 949.526C1553.4 951.927 1560.35 957.897 1566.7 964.017C1573.05 970.138 1579.25 976.678 1587.07 980.699C1600.05 987.329 1615.45 986.099 1630.01 985.469C1644.57 984.869 1660.45 985.469 1671.71 994.77C1680.97 1002.42 1685.2 1014.45 1688.97 1025.88C1694.42 1042.23 1700 1058.52 1705.3 1074.94C1708.57 1085.02 1714.8 1100.47 1704.31 1108.39C1685.83 1122.34 1652.36 1101.73 1641.69 1086.7Z" fill="#04D361"/>
<path d="M1698.47 1108.99C1675.34 1055.22 1626.38 1009.44 1567.78 989.249" stroke="white" stroke-width="0.8174" stroke-miterlimit="10" stroke-linecap="round" stroke-linejoin="round"/>
<path d="M365.892 1106.52C372.513 1096.65 376.348 1083.99 385.247 1076.76C395.464 1068.51 409.515 1069.59 422.459 1069.44C435.372 1069.32 449.963 1066.41 456.075 1053.93C459.43 1047.08 459.46 1038.62 461.827 1031.21C464.404 1023.08 469.617 1016.6 473.302 1009.1C476.958 1001.6 478.935 991.851 474.83 984.08C470.636 976.22 461.378 973.25 453.768 975.05C446.158 976.85 439.866 982.37 434.143 988.071C428.421 993.771 422.818 999.921 415.747 1003.4C404.062 1009.16 390.28 1006.76 377.217 1005.05C364.154 1003.37 349.923 1002.83 339.766 1011.38C331.407 1018.43 327.542 1030.28 324.037 1041.53C319.033 1057.65 313.91 1073.7 309.026 1089.87C306.03 1099.83 300.307 1114.95 309.655 1123.74C326.044 1139.28 356.215 1120.92 365.892 1106.52Z" fill="#04D361"/>
<path d="M314.838 1124.88C335.991 1072.26 380.213 1029.62 432.885 1013.51" stroke="white" stroke-width="0.7781" stroke-miterlimit="10" stroke-linecap="round" stroke-linejoin="round"/>
<path d="M285.836 1078.89C285.117 1068.48 286.795 1057.65 283.829 1047.77C278.526 1030.22 260.13 1021.07 255.516 1003.28C250.003 982.01 266.841 960.289 263.935 938.327C262.706 929.087 258.062 920.956 255.186 912.195C252.31 903.435 251.561 892.484 257.164 885.674C263.036 878.533 273.642 879.373 280.623 885.074C287.574 890.774 291.589 899.985 294.855 909.045C298.09 918.106 300.967 927.616 306.45 935.147C316.456 948.858 334.463 954.858 339.916 971.63C345.489 988.701 334.942 1006.73 333.085 1024.82C331.677 1038.53 335.302 1052.16 338.538 1065.45C341.774 1078.74 344.62 1092.81 341.654 1106.19C337.729 1123.98 323.767 1135.32 310.404 1123.92C297.192 1112.67 287.215 1098.45 285.836 1078.89Z" fill="#04D361"/>
<path d="M318.853 1128.24C324.156 1064.73 311.992 995.811 283.649 940.937" stroke="white" stroke-width="0.9754" stroke-miterlimit="10" stroke-linecap="round" stroke-linejoin="round"/>
<path d="M154.247 1071.21C144.45 1070.34 134.143 1066.71 126.204 1058.88C118.264 1051.07 113.23 1038.5 115.657 1028.09C117.665 1019.54 123.986 1013.9 130.009 1008.77L154.247 1071.21ZM154.247 1071.21C155.455 1071.32 156.688 1071.4 157.935 1071.49C165.906 1072.04 174.401 1072.64 179.894 1079.67L154.247 1071.21ZM294.869 1059.62L294.869 1059.62C305.328 1066.86 312.889 1079.17 317.483 1092.02C317.545 1092.19 317.608 1092.37 317.672 1092.54C319.352 1097.26 321.812 1104.16 323.236 1110.9C323.975 1114.4 324.431 1117.83 324.36 1120.88C324.288 1123.94 323.689 1126.55 322.367 1128.47L322.366 1128.47C319.438 1132.74 314.307 1133.08 308.67 1131.68C303.058 1130.29 297.178 1127.23 293.052 1125.04L293.051 1125.04C291.538 1124.24 290.017 1123.4 288.489 1122.57C285.219 1120.78 281.92 1118.97 278.601 1117.4C273.721 1115.09 268.743 1113.26 263.631 1112.68L263.581 1113.12L263.631 1112.68C254.474 1111.65 245.886 1114.79 237.776 1117.96L237.429 1118.1C229.401 1121.24 221.285 1124.42 212.523 1123.87C203.656 1123.31 193.86 1118 189.486 1108.56C187.683 1104.65 186.901 1100.31 186.112 1095.94C185.972 1095.17 185.831 1094.39 185.684 1093.61C184.722 1088.5 183.5 1083.45 180.288 1079.36C177.018 1075.17 172.718 1073.22 168.145 1072.2C164.821 1071.47 161.309 1071.22 157.935 1070.99C156.697 1070.9 155.477 1070.82 154.292 1070.71L154.291 1070.71C144.581 1069.85 134.393 1066.25 126.555 1058.52L126.554 1058.52C118.703 1050.81 113.767 1038.4 116.144 1028.21C118.109 1019.84 124.299 1014.29 130.333 1009.15L130.333 1009.15C138.724 1001.99 147.992 994.692 158.971 996.246L158.972 996.246C162.861 996.79 166.686 998.424 170.581 1000.09C170.687 1000.13 170.794 1000.18 170.9 1000.22C174.877 1001.92 178.931 1003.62 183.078 1004.05C188.273 1004.59 192.994 1003.11 197.424 1000.84C200.796 999.114 204.034 996.903 207.192 994.747C208.169 994.08 209.138 993.418 210.102 992.777L210.103 992.776C218.294 987.298 228.509 983.143 237.732 988.62C241.676 990.975 244.761 994.713 247.238 999.098C249.714 1003.48 251.567 1008.48 253.06 1013.33L253.061 1013.33C253.438 1014.54 253.808 1015.77 254.181 1017C256.779 1025.6 259.476 1034.53 265.265 1041.2C269.346 1045.93 274.377 1048.87 279.557 1051.45C280.795 1052.07 282.04 1052.67 283.283 1053.27C287.259 1055.18 291.212 1057.08 294.869 1059.62Z" fill="#04D361" stroke="#04D361"/>
<path d="M321.011 1127.52C272.144 1078.14 215.488 1043.87 154.727 1026.95" stroke="white" stroke-width="0.8986" stroke-miterlimit="10" stroke-linecap="round" stroke-linejoin="round"/>
<path d="M1721.21 232.961C1721.21 242.471 1713.51 250.182 1704.01 250.182C1694.52 250.182 1686.82 242.471 1686.82 232.961C1686.82 223.45 1694.52 215.739 1704.01 215.739C1713.48 215.739 1721.21 223.45 1721.21 232.961Z" stroke="#04D361" stroke-width="2" stroke-miterlimit="10" stroke-linecap="round" stroke-linejoin="round"/>
<path d="M1716.45 244.841L1728.58 257.02" stroke="#04D361" stroke-width="2" stroke-miterlimit="10" stroke-linecap="round" stroke-linejoin="round"/>
<path d="M1048.37 1L1066.46 19.1181" stroke="#04D361" stroke-width="2" stroke-miterlimit="10" stroke-linecap="round" stroke-linejoin="round"/>
<path d="M1066.46 1L1048.37 19.1181" stroke="#04D361" stroke-width="2" stroke-miterlimit="10" stroke-linecap="round" stroke-linejoin="round"/>
<path d="M1307.7 1044.08L1325.79 1062.2" stroke="#04D361" stroke-width="2" stroke-miterlimit="10" stroke-linecap="round" stroke-linejoin="round"/>
<path d="M1325.79 1044.08L1307.7 1062.2" stroke="#04D361" stroke-width="2" stroke-miterlimit="10" stroke-linecap="round" stroke-linejoin="round"/>
<path d="M159.473 803.983V829.605" stroke="#04D361" stroke-width="2" stroke-miterlimit="10" stroke-linecap="round" stroke-linejoin="round"/>
<path d="M172.299 816.792H146.682" stroke="#04D361" stroke-width="2" stroke-miterlimit="10" stroke-linecap="round" stroke-linejoin="round"/>
<path d="M103.826 607.263C103.826 615.843 96.8754 622.834 88.2766 622.834C79.7077 622.834 72.7268 615.873 72.7268 607.263C72.7268 598.682 79.6778 591.692 88.2766 591.692C96.8754 591.722 103.826 598.682 103.826 607.263Z" stroke="#04D361" stroke-width="2" stroke-miterlimit="10" stroke-linecap="round" stroke-linejoin="round"/>
<path d="M749.232 983.869C749.232 992.45 742.281 999.44 733.682 999.44C725.113 999.44 718.132 992.48 718.132 983.869C718.132 975.289 725.083 968.298 733.682 968.298C742.281 968.328 749.232 975.289 749.232 983.869Z" stroke="#04D361" stroke-width="2" stroke-miterlimit="10" stroke-linecap="round" stroke-linejoin="round"/>
<path d="M1775.4 703.441C1775.4 712.021 1768.45 719.012 1759.85 719.012C1751.28 719.012 1744.3 712.051 1744.3 703.441C1744.3 694.86 1751.25 687.87 1759.85 687.87C1768.45 687.9 1775.4 694.86 1775.4 703.441Z" stroke="#04D361" stroke-width="2" stroke-miterlimit="10" stroke-linecap="round" stroke-linejoin="round"/>
<path d="M10.7634 334.382C10.7634 337.221 8.46523 339.522 5.63171 339.522C2.79819 339.522 0.5 337.221 0.5 334.382C0.5 331.543 2.79819 329.243 5.63171 329.243C8.46523 329.243 10.7634 331.543 10.7634 334.382Z" fill="#9871F5" stroke="#9871F5"/>
<path d="M50.1025 334.382C50.1025 337.221 47.8043 339.522 44.9708 339.522C42.1372 339.522 39.8391 337.221 39.8391 334.382C39.8391 331.543 42.1372 329.243 44.9708 329.243C47.8043 329.243 50.1025 331.543 50.1025 334.382Z" fill="#9871F5" stroke="#9871F5"/>
<path d="M89.4114 334.382C89.4114 337.221 87.1132 339.522 84.2797 339.522C81.4462 339.522 79.148 337.221 79.148 334.382C79.148 331.543 81.4462 329.243 84.2797 329.243C87.1132 329.243 89.4114 331.543 89.4114 334.382Z" fill="#9871F5" stroke="#9871F5"/>
<path d="M128.75 334.382C128.75 337.221 126.452 339.522 123.619 339.522C120.785 339.522 118.487 337.221 118.487 334.382C118.487 331.543 120.785 329.243 123.619 329.243C126.452 329.243 128.75 331.543 128.75 334.382Z" fill="#9871F5" stroke="#9871F5"/>
<path d="M168.059 334.382C168.059 337.221 165.761 339.522 162.927 339.522C160.094 339.522 157.796 337.221 157.796 334.382C157.796 331.543 160.094 329.243 162.927 329.243C165.761 329.243 168.059 331.543 168.059 334.382Z" fill="#9871F5" stroke="#9871F5"/>
<path d="M207.398 334.382C207.398 337.221 205.099 339.522 202.266 339.522C199.432 339.522 197.134 337.221 197.134 334.382C197.134 331.543 199.432 329.243 202.266 329.243C205.099 329.243 207.398 331.543 207.398 334.382Z" fill="#9871F5" stroke="#9871F5"/>
<path d="M10.7634 373.745C10.7634 376.584 8.46523 378.884 5.63171 378.884C2.79819 378.884 0.5 376.584 0.5 373.745C0.5 370.906 2.79819 368.605 5.63171 368.605C8.46523 368.605 10.7634 370.906 10.7634 373.745Z" fill="#9871F5" stroke="#9871F5"/>
<path d="M50.1025 373.745C50.1025 376.584 47.8043 378.884 44.9708 378.884C42.1372 378.884 39.8391 376.584 39.8391 373.745C39.8391 370.906 42.1372 368.605 44.9708 368.605C47.8043 368.605 50.1025 370.906 50.1025 373.745Z" fill="#9871F5" stroke="#9871F5"/>
<path d="M89.4117 373.745C89.4117 376.584 87.1135 378.884 84.28 378.884C81.4465 378.884 79.1483 376.584 79.1483 373.745C79.1483 370.906 81.4465 368.605 84.28 368.605C87.1135 368.605 89.4117 370.906 89.4117 373.745Z" fill="#9871F5" stroke="#9871F5"/>
<path d="M128.75 373.745C128.75 376.584 126.452 378.884 123.618 378.884C120.785 378.884 118.487 376.584 118.487 373.745C118.487 370.906 120.785 368.605 123.618 368.605C126.452 368.605 128.75 370.906 128.75 373.745Z" fill="#9871F5" stroke="#9871F5"/>
<path d="M168.059 373.745C168.059 376.584 165.761 378.884 162.927 378.884C160.094 378.884 157.796 376.584 157.796 373.745C157.796 370.906 160.094 368.605 162.927 368.605C165.761 368.605 168.059 370.906 168.059 373.745Z" fill="#9871F5" stroke="#9871F5"/>
<path d="M207.398 373.745C207.398 376.584 205.099 378.884 202.266 378.884C199.432 378.884 197.134 376.584 197.134 373.745C197.134 370.906 199.432 368.605 202.266 368.605C205.099 368.605 207.398 370.906 207.398 373.745Z" fill="#9871F5" stroke="#9871F5"/>
<path d="M10.7634 413.138C10.7634 415.977 8.46523 418.277 5.63171 418.277C2.79819 418.277 0.5 415.977 0.5 413.138C0.5 410.299 2.79819 407.998 5.63171 407.998C8.46523 407.998 10.7634 410.299 10.7634 413.138Z" fill="#9871F5" stroke="#9871F5"/>
<path d="M50.1025 413.138C50.1025 415.977 47.8043 418.277 44.9708 418.277C42.1372 418.277 39.8391 415.977 39.8391 413.138C39.8391 410.299 42.1372 407.998 44.9708 407.998C47.8043 407.998 50.1025 410.299 50.1025 413.138Z" fill="#9871F5" stroke="#9871F5"/>
<path d="M89.4117 413.138C89.4117 415.977 87.1135 418.277 84.28 418.277C81.4465 418.277 79.1483 415.977 79.1483 413.138C79.1483 410.299 81.4465 407.998 84.28 407.998C87.1135 407.998 89.4117 410.299 89.4117 413.138Z" fill="#9871F5" stroke="#9871F5"/>
<path d="M128.75 413.138C128.75 415.977 126.452 418.277 123.618 418.277C120.785 418.277 118.487 415.977 118.487 413.138C118.487 410.299 120.785 407.998 123.618 407.998C126.452 407.998 128.75 410.299 128.75 413.138Z" fill="#9871F5" stroke="#9871F5"/>
<path d="M168.059 413.138C168.059 415.977 165.761 418.277 162.927 418.277C160.094 418.277 157.796 415.977 157.796 413.138C157.796 410.299 160.094 407.998 162.927 407.998C165.761 407.998 168.059 410.299 168.059 413.138Z" fill="#9871F5" stroke="#9871F5"/>
<path d="M207.398 413.138C207.398 415.977 205.099 418.277 202.266 418.277C199.432 418.277 197.134 415.977 197.134 413.138C197.134 410.299 199.432 407.998 202.266 407.998C205.099 407.998 207.398 410.299 207.398 413.138Z" fill="#9871F5" stroke="#9871F5"/>
<path d="M10.7634 452.5C10.7634 455.339 8.46523 457.64 5.63171 457.64C2.79819 457.64 0.5 455.339 0.5 452.5C0.5 449.661 2.79819 447.361 5.63171 447.361C8.46523 447.361 10.7634 449.661 10.7634 452.5Z" fill="#9871F5" stroke="#9871F5"/>
<path d="M50.1025 452.5C50.1025 455.339 47.8043 457.64 44.9708 457.64C42.1372 457.64 39.8391 455.339 39.8391 452.5C39.8391 449.661 42.1372 447.361 44.9708 447.361C47.8043 447.361 50.1025 449.661 50.1025 452.5Z" fill="#9871F5" stroke="#9871F5"/>
<path d="M89.4117 452.5C89.4117 455.339 87.1135 457.64 84.28 457.64C81.4465 457.64 79.1483 455.339 79.1483 452.5C79.1483 449.661 81.4465 447.361 84.28 447.361C87.1135 447.361 89.4117 449.661 89.4117 452.5Z" fill="#9871F5" stroke="#9871F5"/>
<path d="M128.75 452.5C128.75 455.339 126.452 457.64 123.618 457.64C120.785 457.64 118.487 455.339 118.487 452.5C118.487 449.661 120.785 447.361 123.618 447.361C126.452 447.361 128.75 449.661 128.75 452.5Z" fill="#9871F5" stroke="#9871F5"/>
<path d="M168.059 452.5C168.059 455.339 165.761 457.64 162.927 457.64C160.094 457.64 157.796 455.339 157.796 452.5C157.796 449.661 160.094 447.361 162.927 447.361C165.761 447.361 168.059 449.661 168.059 452.5Z" fill="#9871F5" stroke="#9871F5"/>
<path d="M207.398 452.5C207.398 455.339 205.099 457.64 202.266 457.64C199.432 457.64 197.134 455.339 197.134 452.5C197.134 449.661 199.432 447.361 202.266 447.361C205.099 447.361 207.398 449.661 207.398 452.5Z" fill="#9871F5" stroke="#9871F5"/>
<path d="M617.621 1076.05C617.621 1078.89 615.322 1081.19 612.489 1081.19C609.655 1081.19 607.357 1078.89 607.357 1076.05C607.357 1073.21 609.655 1070.91 612.489 1070.91C615.322 1070.91 617.621 1073.21 617.621 1076.05Z" fill="#9871F5" stroke="#9871F5"/>
<path d="M656.96 1076.05C656.96 1078.89 654.661 1081.19 651.828 1081.19C648.994 1081.19 646.696 1078.89 646.696 1076.05C646.696 1073.21 648.994 1070.91 651.828 1070.91C654.661 1070.91 656.96 1073.21 656.96 1076.05Z" fill="#9871F5" stroke="#9871F5"/>
<path d="M696.268 1076.05C696.268 1078.89 693.97 1081.19 691.137 1081.19C688.303 1081.19 686.005 1078.89 686.005 1076.05C686.005 1073.21 688.303 1070.91 691.137 1070.91C693.97 1070.91 696.268 1073.21 696.268 1076.05Z" fill="#9871F5" stroke="#9871F5"/>
<path d="M735.607 1076.05C735.607 1078.89 733.309 1081.19 730.475 1081.19C727.642 1081.19 725.344 1078.89 725.344 1076.05C725.344 1073.21 727.642 1070.91 730.475 1070.91C733.309 1070.91 735.607 1073.21 735.607 1076.05Z" fill="#9871F5" stroke="#9871F5"/>
<path d="M774.916 1076.05C774.916 1078.89 772.618 1081.19 769.785 1081.19C766.951 1081.19 764.653 1078.89 764.653 1076.05C764.653 1073.21 766.951 1070.91 769.785 1070.91C772.618 1070.91 774.916 1073.21 774.916 1076.05Z" fill="#9871F5" stroke="#9871F5"/>
<path d="M617.621 1115.44C617.621 1118.28 615.322 1120.58 612.489 1120.58C609.655 1120.58 607.357 1118.28 607.357 1115.44C607.357 1112.6 609.655 1110.3 612.489 1110.3C615.322 1110.3 617.621 1112.6 617.621 1115.44Z" fill="#9871F5" stroke="#9871F5"/>
<path d="M656.959 1115.44C656.959 1118.28 654.661 1120.58 651.828 1120.58C648.994 1120.58 646.696 1118.28 646.696 1115.44C646.696 1112.6 648.994 1110.3 651.828 1110.3C654.661 1110.3 656.959 1112.6 656.959 1115.44Z" fill="#9871F5" stroke="#9871F5"/>
<path d="M696.269 1115.44C696.269 1118.28 693.97 1120.58 691.137 1120.58C688.303 1120.58 686.005 1118.28 686.005 1115.44C686.005 1112.6 688.303 1110.3 691.137 1110.3C693.97 1110.3 696.269 1112.6 696.269 1115.44Z" fill="#9871F5" stroke="#9871F5"/>
<path d="M735.607 1115.44C735.607 1118.28 733.309 1120.58 730.475 1120.58C727.642 1120.58 725.344 1118.28 725.344 1115.44C725.344 1112.6 727.642 1110.3 730.475 1110.3C733.309 1110.3 735.607 1112.6 735.607 1115.44Z" fill="#9871F5" stroke="#9871F5"/>
<path d="M774.916 1115.44C774.916 1118.28 772.618 1120.58 769.784 1120.58C766.951 1120.58 764.653 1118.28 764.653 1115.44C764.653 1112.6 766.951 1110.3 769.784 1110.3C772.618 1110.3 774.916 1112.6 774.916 1115.44Z" fill="#9871F5" stroke="#9871F5"/>
<path d="M1614.2 91.0209C1614.2 93.86 1611.9 96.1603 1609.07 96.1603C1606.23 96.1603 1603.94 93.86 1603.94 91.0209C1603.94 88.1819 1606.23 85.8815 1609.07 85.8815C1611.9 85.8815 1614.2 88.1819 1614.2 91.0209Z" fill="#9871F5" stroke="#9871F5"/>
<path d="M1653.51 91.0209C1653.51 93.86 1651.21 96.1603 1648.38 96.1603C1645.54 96.1603 1643.24 93.86 1643.24 91.0209C1643.24 88.1819 1645.54 85.8815 1648.38 85.8815C1651.21 85.8815 1653.51 88.1819 1653.51 91.0209Z" fill="#9871F5" stroke="#9871F5"/>
<path d="M1692.85 91.0209C1692.85 93.86 1690.55 96.1603 1687.72 96.1603C1684.88 96.1603 1682.58 93.86 1682.58 91.0209C1682.58 88.1819 1684.88 85.8815 1687.72 85.8815C1690.55 85.8815 1692.85 88.1819 1692.85 91.0209Z" fill="#9871F5" stroke="#9871F5"/>
<path d="M1614.2 130.414C1614.2 133.253 1611.9 135.553 1609.07 135.553C1606.23 135.553 1603.94 133.253 1603.94 130.414C1603.94 127.575 1606.23 125.274 1609.07 125.274C1611.9 125.274 1614.2 127.575 1614.2 130.414Z" fill="#9871F5" stroke="#9871F5"/>
<path d="M1653.51 130.414C1653.51 133.253 1651.21 135.553 1648.38 135.553C1645.54 135.553 1643.24 133.253 1643.24 130.414C1643.24 127.575 1645.54 125.274 1648.38 125.274C1651.21 125.274 1653.51 127.575 1653.51 130.414Z" fill="#9871F5" stroke="#9871F5"/>
<path d="M1692.85 130.414C1692.85 133.253 1690.55 135.553 1687.72 135.553C1684.88 135.553 1682.58 133.253 1682.58 130.414C1682.58 127.575 1684.88 125.274 1687.72 125.274C1690.55 125.274 1692.85 127.575 1692.85 130.414Z" fill="#9871F5" stroke="#9871F5"/>
<path d="M584.627 16.4965C584.627 19.3356 582.329 21.6359 579.495 21.6359C576.661 21.6359 574.363 19.3356 574.363 16.4965C574.363 13.6575 576.661 11.3571 579.495 11.3571C582.329 11.3571 584.627 13.6574 584.627 16.4965Z" fill="#9871F5" stroke="#9871F5"/>
<path d="M623.936 16.4965C623.936 19.3356 621.638 21.6359 618.804 21.6359C615.971 21.6359 613.672 19.3356 613.672 16.4965C613.672 13.6575 615.971 11.3571 618.804 11.3571C621.638 11.3571 623.936 13.6575 623.936 16.4965Z" fill="#9871F5" stroke="#9871F5"/>
<path d="M663.275 16.4965C663.275 19.3356 660.977 21.6359 658.143 21.6359C655.31 21.6359 653.011 19.3356 653.011 16.4965C653.011 13.6575 655.31 11.3571 658.143 11.3571C660.977 11.3571 663.275 13.6574 663.275 16.4965Z" fill="#9871F5" stroke="#9871F5"/>
<path d="M584.627 55.8893C584.627 58.7284 582.329 61.0287 579.495 61.0287C576.662 61.0287 574.363 58.7283 574.363 55.8893C574.363 53.0502 576.662 50.7499 579.495 50.7499C582.329 50.7499 584.627 53.0502 584.627 55.8893Z" fill="#9871F5" stroke="#9871F5"/>
<path d="M623.936 55.8893C623.936 58.7284 621.638 61.0288 618.804 61.0288C615.971 61.0288 613.672 58.7284 613.672 55.8893C613.672 53.0503 615.971 50.7499 618.804 50.7499C621.638 50.7499 623.936 53.0503 623.936 55.8893Z" fill="#9871F5" stroke="#9871F5"/>
<path d="M663.275 55.8893C663.275 58.7284 660.977 61.0288 658.143 61.0288C655.31 61.0288 653.011 58.7284 653.011 55.8893C653.011 53.0503 655.31 50.7499 658.143 50.7499C660.977 50.7499 663.275 53.0503 663.275 55.8893Z" fill="#9871F5" stroke="#9871F5"/>
<path d="M1967.64 623.314C1967.64 626.153 1965.34 628.454 1962.51 628.454C1959.68 628.454 1957.38 626.153 1957.38 623.314C1957.38 620.475 1959.68 618.175 1962.51 618.175C1965.34 618.175 1967.64 620.475 1967.64 623.314Z" fill="#9871F5" stroke="#9871F5"/>
<path d="M1967.64 662.707C1967.64 665.546 1965.34 667.846 1962.51 667.846C1959.68 667.846 1957.38 665.546 1957.38 662.707C1957.38 659.868 1959.68 657.568 1962.51 657.568C1965.34 657.568 1967.64 659.868 1967.64 662.707Z" fill="#9871F5" stroke="#9871F5"/>
<path d="M1967.64 702.07C1967.64 704.909 1965.34 707.209 1962.51 707.209C1959.68 707.209 1957.38 704.909 1957.38 702.07C1957.38 699.231 1959.68 696.93 1962.51 696.93C1965.34 696.93 1967.64 699.231 1967.64 702.07Z" fill="#9871F5" stroke="#9871F5"/>
<path d="M1967.64 741.462C1967.64 744.301 1965.34 746.602 1962.51 746.602C1959.68 746.602 1957.38 744.301 1957.38 741.462C1957.38 738.623 1959.68 736.323 1962.51 736.323C1965.34 736.323 1967.64 738.623 1967.64 741.462Z" fill="#9871F5" stroke="#9871F5"/>
<path d="M1967.64 780.825C1967.64 783.664 1965.34 785.965 1962.51 785.965C1959.68 785.965 1957.38 783.664 1957.38 780.825C1957.38 777.986 1959.68 775.686 1962.51 775.686C1965.34 775.686 1967.64 777.986 1967.64 780.825Z" fill="#9871F5" stroke="#9871F5"/>
<path d="M1967.64 820.218C1967.64 823.057 1965.34 825.357 1962.51 825.357C1959.68 825.357 1957.38 823.057 1957.38 820.218C1957.38 817.379 1959.68 815.078 1962.51 815.078C1965.34 815.078 1967.64 817.379 1967.64 820.218Z" fill="#9871F5" stroke="#9871F5"/>
<path d="M1967.64 859.58C1967.64 862.42 1965.34 864.72 1962.51 864.72C1959.68 864.72 1957.38 862.42 1957.38 859.58C1957.38 856.741 1959.68 854.441 1962.51 854.441C1965.34 854.441 1967.64 856.741 1967.64 859.58Z" fill="#9871F5" stroke="#9871F5"/>
<path d="M1928.3 623.314C1928.3 626.153 1926.01 628.454 1923.17 628.454C1920.34 628.454 1918.04 626.153 1918.04 623.314C1918.04 620.475 1920.34 618.175 1923.17 618.175C1926.01 618.175 1928.3 620.475 1928.3 623.314Z" fill="#9871F5" stroke="#9871F5"/>
<path d="M1928.3 662.707C1928.3 665.546 1926.01 667.846 1923.17 667.846C1920.34 667.846 1918.04 665.546 1918.04 662.707C1918.04 659.868 1920.34 657.568 1923.17 657.568C1926.01 657.568 1928.3 659.868 1928.3 662.707Z" fill="#9871F5" stroke="#9871F5"/>
<path d="M1928.3 702.07C1928.3 704.909 1926.01 707.209 1923.17 707.209C1920.34 707.209 1918.04 704.909 1918.04 702.07C1918.04 699.231 1920.34 696.93 1923.17 696.93C1926.01 696.93 1928.3 699.231 1928.3 702.07Z" fill="#9871F5" stroke="#9871F5"/>
<path d="M1928.3 741.462C1928.3 744.301 1926.01 746.602 1923.17 746.602C1920.34 746.602 1918.04 744.301 1918.04 741.462C1918.04 738.623 1920.34 736.323 1923.17 736.323C1926.01 736.323 1928.3 738.623 1928.3 741.462Z" fill="#9871F5" stroke="#9871F5"/>
<path d="M1928.3 780.825C1928.3 783.664 1926.01 785.965 1923.17 785.965C1920.34 785.965 1918.04 783.664 1918.04 780.825C1918.04 777.986 1920.34 775.686 1923.17 775.686C1926.01 775.686 1928.3 777.986 1928.3 780.825Z" fill="#9871F5" stroke="#9871F5"/>
<path d="M1928.3 820.218C1928.3 823.057 1926.01 825.357 1923.17 825.357C1920.34 825.357 1918.04 823.057 1918.04 820.218C1918.04 817.379 1920.34 815.078 1923.17 815.078C1926.01 815.078 1928.3 817.379 1928.3 820.218Z" fill="#9871F5" stroke="#9871F5"/>
<path d="M1928.3 859.58C1928.3 862.42 1926.01 864.72 1923.17 864.72C1920.34 864.72 1918.04 862.42 1918.04 859.58C1918.04 856.741 1920.34 854.441 1923.17 854.441C1926.01 854.441 1928.3 856.741 1928.3 859.58Z" fill="#9871F5" stroke="#9871F5"/>
<path d="M1889 623.314C1889 626.153 1886.7 628.454 1883.86 628.454C1881.03 628.454 1878.73 626.153 1878.73 623.314C1878.73 620.475 1881.03 618.175 1883.86 618.175C1886.7 618.175 1889 620.475 1889 623.314Z" fill="#9871F5" stroke="#9871F5"/>
<path d="M1889 662.707C1889 665.546 1886.7 667.846 1883.86 667.846C1881.03 667.846 1878.73 665.546 1878.73 662.707C1878.73 659.868 1881.03 657.568 1883.86 657.568C1886.7 657.568 1889 659.868 1889 662.707Z" fill="#9871F5" stroke="#9871F5"/>
<path d="M1889 702.07C1889 704.909 1886.7 707.209 1883.86 707.209C1881.03 707.209 1878.73 704.909 1878.73 702.07C1878.73 699.231 1881.03 696.93 1883.86 696.93C1886.7 696.93 1889 699.231 1889 702.07Z" fill="#9871F5" stroke="#9871F5"/>
<path d="M1889 741.462C1889 744.301 1886.7 746.602 1883.86 746.602C1881.03 746.602 1878.73 744.301 1878.73 741.462C1878.73 738.623 1881.03 736.323 1883.86 736.323C1886.7 736.323 1889 738.623 1889 741.462Z" fill="#9871F5" stroke="#9871F5"/>
<path d="M1889 780.825C1889 783.664 1886.7 785.965 1883.86 785.965C1881.03 785.965 1878.73 783.664 1878.73 780.825C1878.73 777.986 1881.03 775.686 1883.86 775.686C1886.7 775.686 1889 777.986 1889 780.825Z" fill="#9871F5" stroke="#9871F5"/>
<path d="M1889 820.218C1889 823.057 1886.7 825.357 1883.86 825.357C1881.03 825.357 1878.73 823.057 1878.73 820.218C1878.73 817.379 1881.03 815.078 1883.86 815.078C1886.7 815.078 1889 817.379 1889 820.218Z" fill="#9871F5" stroke="#9871F5"/>
<path d="M1889 859.58C1889 862.42 1886.7 864.72 1883.86 864.72C1881.03 864.72 1878.73 862.42 1878.73 859.58C1878.73 856.741 1881.03 854.441 1883.86 854.441C1886.7 854.441 1889 856.741 1889 859.58Z" fill="#9871F5" stroke="#9871F5"/>
<path d="M1849.66 623.314C1849.66 626.153 1847.36 628.454 1844.52 628.454C1841.69 628.454 1839.39 626.153 1839.39 623.314C1839.39 620.475 1841.69 618.175 1844.52 618.175C1847.36 618.175 1849.66 620.475 1849.66 623.314Z" fill="#9871F5" stroke="#9871F5"/>
<path d="M1849.66 662.707C1849.66 665.546 1847.36 667.846 1844.52 667.846C1841.69 667.846 1839.39 665.546 1839.39 662.707C1839.39 659.868 1841.69 657.568 1844.52 657.568C1847.36 657.568 1849.66 659.868 1849.66 662.707Z" fill="#9871F5" stroke="#9871F5"/>
<path d="M1849.66 702.07C1849.66 704.909 1847.36 707.209 1844.52 707.209C1841.69 707.209 1839.39 704.909 1839.39 702.07C1839.39 699.231 1841.69 696.93 1844.52 696.93C1847.36 696.93 1849.66 699.231 1849.66 702.07Z" fill="#9871F5" stroke="#9871F5"/>
<path d="M1849.66 741.462C1849.66 744.301 1847.36 746.602 1844.52 746.602C1841.69 746.602 1839.39 744.301 1839.39 741.462C1839.39 738.623 1841.69 736.323 1844.52 736.323C1847.36 736.323 1849.66 738.623 1849.66 741.462Z" fill="#9871F5" stroke="#9871F5"/>
<path d="M1849.66 780.825C1849.66 783.664 1847.36 785.965 1844.52 785.965C1841.69 785.965 1839.39 783.664 1839.39 780.825C1839.39 777.986 1841.69 775.686 1844.52 775.686C1847.36 775.686 1849.66 777.986 1849.66 780.825Z" fill="#9871F5" stroke="#9871F5"/>
<path d="M1849.66 820.218C1849.66 823.057 1847.36 825.357 1844.52 825.357C1841.69 825.357 1839.39 823.057 1839.39 820.218C1839.39 817.379 1841.69 815.078 1844.52 815.078C1847.36 815.078 1849.66 817.379 1849.66 820.218Z" fill="#9871F5" stroke="#9871F5"/>
<path d="M1849.66 859.58C1849.66 862.42 1847.36 864.72 1844.52 864.72C1841.69 864.72 1839.39 862.42 1839.39 859.58C1839.39 856.741 1841.69 854.441 1844.52 854.441C1847.36 854.441 1849.66 856.741 1849.66 859.58Z" fill="#9871F5" stroke="#9871F5"/>
<path d="M1508.31 859.196H487.227C468.153 859.196 452.672 843.578 452.672 824.313V194.958C452.672 175.694 468.153 160.076 487.227 160.076H1508.34C1527.41 160.076 1542.89 175.694 1542.89 194.958V824.313C1542.86 843.578 1527.38 859.196 1508.31 859.196Z" fill="#04D361" stroke="#04D361"/>
<path d="M1506.83 829.881H488.693C472.904 829.881 460.081 817.04 460.081 801.229V195.097C460.081 179.286 472.904 166.445 488.693 166.445H1506.83C1522.62 166.445 1535.44 179.286 1535.44 195.097V801.229C1535.44 817.07 1522.62 829.881 1506.83 829.881Z" fill="white"/>
<path d="M1171.99 223.15V650.799C1171.99 663.7 1161.56 674.141 1148.68 674.141H505.652C499.87 674.141 494.567 672.041 490.492 668.531C485.519 664.24 482.343 657.91 482.343 650.799V223.15C482.343 210.249 492.799 199.808 505.652 199.808H1148.68C1154.46 199.808 1159.79 201.909 1163.84 205.419C1168.84 209.709 1171.99 216.039 1171.99 223.15Z" fill="#E6E6F0"/>
<path d="M1490.07 382.611H1223.9C1211.01 382.611 1200.59 372.17 1200.59 359.269V223.15C1200.59 210.249 1211.01 199.808 1223.9 199.808H1490.07C1502.95 199.808 1513.38 210.249 1513.38 223.15V359.269C1513.38 372.17 1502.92 382.611 1490.07 382.611Z" fill="#E6E6F0"/>
<path d="M1490.07 597.803H1223.9C1211.01 597.803 1200.59 587.362 1200.59 574.461V438.342C1200.59 425.441 1211.01 415 1223.9 415H1490.07C1502.95 415 1513.38 425.441 1513.38 438.342V574.461C1513.38 587.362 1502.92 597.803 1490.07 597.803Z" fill="#E6E6F0"/>
<path d="M1490.07 801.699H1223.9C1211.01 801.699 1200.59 791.258 1200.59 778.357V655.199C1200.59 642.298 1211.01 631.857 1223.9 631.857H1490.07C1502.95 631.857 1513.38 642.298 1513.38 655.199V778.357C1513.38 791.258 1502.92 801.699 1490.07 801.699Z" fill="#E6E6F0"/>
<path d="M833.996 720.044H490.822C486.149 720.044 482.373 716.264 482.373 711.584C482.373 706.903 486.149 703.123 490.822 703.123H833.996C838.67 703.123 842.445 706.903 842.445 711.584C842.445 716.234 838.67 720.044 833.996 720.044Z" fill="#E6E6F0"/>
<path d="M853.804 799.429H491.164C486.225 799.429 482.235 795.761 482.235 791.219V758.352C482.235 753.811 486.225 750.143 491.164 750.143H853.804C858.743 750.143 862.733 753.811 862.733 758.352V791.219C862.733 795.761 858.743 799.429 853.804 799.429Z" fill="#E6E6F0"/>
<path d="M1088.07 720.044H1163.54C1168.21 720.044 1171.99 716.264 1171.99 711.584C1171.99 706.903 1168.21 703.123 1163.54 703.123H1088.07C1083.39 703.123 1079.62 706.903 1079.62 711.584C1079.62 716.234 1083.39 720.044 1088.07 720.044Z" fill="#E6E6F0"/>
<path d="M960.042 720.044H1035.51C1040.19 720.044 1043.96 716.264 1043.96 711.584C1043.96 706.903 1040.19 703.123 1035.51 703.123H960.042C955.368 703.123 951.593 706.903 951.593 711.584C951.563 716.234 955.368 720.044 960.042 720.044Z" fill="#E6E6F0"/>
<path d="M1013.85 799.789H1163.54C1168.21 799.789 1171.99 796.009 1171.99 791.329V757.457C1171.99 752.776 1168.21 748.996 1163.54 748.996H1013.85C1009.18 748.996 1005.4 752.776 1005.4 757.457V791.329C1005.4 796.009 1009.18 799.789 1013.85 799.789Z" fill="#E6E6F0"/>
<g opacity="0.24">
<path d="M1356.02 339.888C1382.08 339.888 1403.21 318.732 1403.21 292.635C1403.21 266.538 1382.08 245.382 1356.02 245.382C1329.96 245.382 1308.83 266.538 1308.83 292.635C1308.83 318.732 1329.96 339.888 1356.02 339.888Z" fill="#E6E6F0" stroke="#6842C2" stroke-width="2" stroke-miterlimit="10"/>
<path d="M1375.36 287.976L1348.42 272.404C1345.46 270.694 1341.77 272.824 1341.77 276.245V307.387C1341.77 310.807 1345.46 312.937 1348.42 311.227L1375.36 295.656C1378.32 293.946 1378.32 289.686 1375.36 287.976Z" fill="#E6E6F0" stroke="#6842C2" stroke-width="2" stroke-miterlimit="10"/>
</g>
<g opacity="0.24">
<path d="M1356.02 552.221C1382.08 552.221 1403.21 531.065 1403.21 504.968C1403.21 478.87 1382.08 457.714 1356.02 457.714C1329.96 457.714 1308.83 478.87 1308.83 504.968C1308.83 531.065 1329.96 552.221 1356.02 552.221Z" fill="#E6E6F0" stroke="#6842C2" stroke-width="2" stroke-miterlimit="10"/>
<path d="M1375.36 500.308L1348.42 484.737C1345.46 483.027 1341.77 485.157 1341.77 488.577V519.719C1341.77 523.14 1345.46 525.27 1348.42 523.56L1375.36 507.989C1378.32 506.278 1378.32 502.018 1375.36 500.308Z" fill="#E6E6F0" stroke="#6842C2" stroke-width="2" stroke-miterlimit="10"/>
</g>
<g opacity="0.24">
<path d="M1356.02 762.506C1382.08 762.506 1403.21 741.35 1403.21 715.253C1403.21 689.156 1382.08 668 1356.02 668C1329.96 668 1308.83 689.156 1308.83 715.253C1308.83 741.35 1329.96 762.506 1356.02 762.506Z" fill="#E6E6F0" stroke="#6842C2" stroke-width="2" stroke-miterlimit="10"/>
<path d="M1375.36 710.594L1348.42 695.023C1345.46 693.312 1341.77 695.443 1341.77 698.863V730.005C1341.77 733.425 1345.46 735.555 1348.42 733.845L1375.36 718.274C1378.32 716.564 1378.32 712.304 1375.36 710.594Z" fill="#E6E6F0" stroke="#6842C2" stroke-width="2" stroke-miterlimit="10"/>
</g>
<path d="M1163.84 205.419L490.492 668.531C485.519 664.24 482.343 657.91 482.343 650.799V223.15C482.343 210.249 492.799 199.808 505.652 199.808H1148.68C1154.46 199.808 1159.79 201.909 1163.84 205.419Z" fill="#F2F2FA"/>
<mask id="mask0" mask-type="alpha" maskUnits="userSpaceOnUse" x="484" y="103" width="689" height="573">
<path d="M1172.83 131.833V646.929C1172.83 662.468 1162.42 675.043 1149.56 675.043H507.681C501.909 675.043 496.616 672.514 492.548 668.286C487.583 663.118 484.413 655.493 484.413 646.929V131.833C484.413 116.294 494.851 103.719 507.681 103.719H1149.56C1155.33 103.719 1160.65 106.248 1164.69 110.476C1169.69 115.644 1172.83 123.269 1172.83 131.833Z" fill="#A3D1DE"/>
</mask>
<g mask="url(#mask0)">
<path d="M1118.6 467.464C1118.6 467.464 1157.04 437.072 1158.05 428.372C1159.97 411.991 1165.84 399.15 1201.02 388.289C1201.02 388.289 1203.75 393.509 1198.86 399.18C1193.53 405.33 1189.3 407.49 1189.3 407.49C1189.3 407.49 1198.62 411.061 1212.49 400.2C1226.37 389.369 1232.21 379.948 1238.05 382.259C1238.05 382.259 1244.94 376.018 1248.21 377.008C1248.21 377.008 1250.6 377.728 1250.16 380.308C1255.58 379.468 1254.47 395.13 1244.82 407.85C1230.95 426.152 1213.63 441.903 1199.46 447.093C1188.82 450.993 1144.87 495.786 1144.87 495.786L1118.6 467.464Z" fill="#FFCAD0"/>
<path d="M999.89 622.515C983.112 628.185 890.023 484.836 890.023 484.836C854.04 443.373 886.338 306.803 918.905 354.687C918.905 354.687 1003.61 508.117 1012.74 520.478C1024.1 535.839 1061.88 601.544 999.89 622.515Z" fill="#04D361"/>
<path d="M894.996 764.815H649.556C649.556 764.815 630.71 756.504 647.099 720.262C653.241 706.731 650.574 671.868 649.556 624.015C647.488 529.389 619.445 372.328 654.05 354.327C674.783 343.496 718.826 329.245 750.794 319.494C752.711 318.954 754.569 318.384 756.397 317.844C775.062 312.264 788.395 308.573 788.395 308.573C788.395 308.573 803.855 310.824 835.254 320.124C836.962 320.634 838.73 321.174 840.557 321.714C848.736 324.205 857.845 327.115 867.971 330.565C922.86 349.256 916.688 342.596 923.969 411.241C929.781 466.054 894.996 764.815 894.996 764.815Z" fill="#04D361"/>
<path d="M840.557 321.684C839.838 333.325 834.625 343.616 826.685 351.146C818.626 358.857 807.69 363.537 795.765 363.537C771.167 363.537 751.273 343.826 750.764 319.494C752.681 318.954 754.539 318.384 756.367 317.844C775.032 312.264 788.365 308.573 788.365 308.573C788.365 308.573 803.825 310.824 835.224 320.124C836.932 320.604 838.729 321.144 840.557 321.684Z" fill="#F2F2FA"/>
<path d="M835.165 223.428L831.3 298.193L830.191 319.524C829.742 328.585 825.757 336.655 819.585 342.476C813.473 348.296 805.204 351.837 796.155 351.837C777.01 351.837 761.58 336.025 762.09 316.884L763.048 278.811L764.666 215.567L835.165 223.428Z" fill="#FBD5D9"/>
<path d="M835.165 238.369L831.3 308.783C798.223 310.104 774.104 296.663 763.048 278.721L764.666 230.568L835.165 238.369Z" fill="#FFA4AD"/>
<path d="M742.704 150.223C742.704 150.223 711.006 146.262 714.631 186.045C717.447 216.887 759.303 258.05 759.303 258.05C759.303 258.05 785.729 165.104 742.704 150.223Z" fill="#8F4A3F"/>
<path d="M872.166 178.875C870.009 183.795 866.684 188.085 863.957 192.705C861.261 197.326 859.103 202.606 859.703 207.947C859.163 199.276 853.441 191.985 848.497 184.875C843.554 177.734 839.059 169.094 841.426 160.753C843.673 152.743 858.145 140.112 866.953 145.302C876.751 151.063 876.001 170.144 872.166 178.875Z" fill="#0E1235"/>
<path d="M861.41 180.465C861.41 180.465 863.867 204.826 860.452 231.798C856.497 262.97 857.905 299.573 812.035 302.033C763.079 304.643 746.87 249.769 746.87 249.769C746.87 249.769 720.863 244.909 719.096 227.328C717.328 209.717 735.484 208.727 741.417 213.677C741.417 213.677 748.128 148.062 808.679 148.062C862.1 148.002 861.41 180.465 861.41 180.465Z" fill="#FBD5D9"/>
<path d="M803.883 230.537C803.883 233.207 801.726 235.397 799.03 235.397C796.334 235.397 794.177 233.237 794.177 230.537C794.177 227.868 796.334 225.678 799.03 225.678C801.726 225.678 803.883 227.868 803.883 230.537Z" fill="#9A5449"/>
<path d="M847.746 230.537C847.746 233.207 845.589 235.397 842.893 235.397C840.197 235.397 838.041 233.237 838.041 230.537C838.041 227.868 840.197 225.678 842.893 225.678C845.589 225.678 847.746 227.868 847.746 230.537Z" fill="#9A5449"/>
<path d="M781.384 213.647C781.384 213.647 788.575 201.796 803.885 206.056" stroke="#561E15" stroke-width="1.0274" stroke-miterlimit="10" stroke-linecap="round" stroke-linejoin="round"/>
<path d="M830.281 205.876C830.281 205.876 841.336 195.766 852.212 206.837" stroke="#561E15" stroke-width="1.0274" stroke-miterlimit="10" stroke-linecap="round" stroke-linejoin="round"/>
<path d="M820.573 217.907C820.573 217.907 825.817 231.318 830.281 239.659C834.745 247.999 821.562 251.72 821.562 251.72" stroke="#D66D78" stroke-width="0.7706" stroke-miterlimit="10" stroke-linecap="round" stroke-linejoin="round"/>
<path d="M803.016 266.721C803.016 266.721 813.832 277.221 827.734 270.801" stroke="#D66D78" stroke-width="0.7706" stroke-miterlimit="10" stroke-linecap="round" stroke-linejoin="round"/>
<path d="M740.545 232.966C740.545 232.966 740.396 217.878 729.132 221.987" stroke="#D66D78" stroke-width="0.7706" stroke-miterlimit="10" stroke-linecap="round" stroke-linejoin="round"/>
<path d="M755.408 162.823C755.408 162.823 782.943 190.905 767.872 201.646C751.094 213.617 748.487 230.538 748.487 230.538C748.487 230.538 748.847 224.568 741.387 213.647C733.926 202.696 717.658 163.873 755.408 162.823Z" fill="#8F4A3F"/>
<path d="M999.891 622.515C1019.9 635.566 1172.02 472.865 1172.02 472.865L1145.02 437.492C1145.02 437.492 1029.37 510.157 1012.74 520.478C988.775 535.329 932.568 578.652 999.891 622.515Z" fill="#04D361"/>
<path d="M918.996 527.919C918.996 527.919 925.797 453.544 924.628 429.932C924.628 429.932 934.306 492.366 934.545 550.06L918.996 527.919Z" fill="#03A14A"/>
<path d="M661.96 502.567C661.96 502.567 697.583 349.826 659.473 351.626C659.473 351.626 647.039 353.127 622.711 390.929C605.693 417.361 587.057 463.174 553.081 537.699C537.022 572.922 516.948 620.595 554.22 623.145C574.384 624.525 595.536 613.484 608 590.293C630.83 547.81 661.96 502.567 661.96 502.567Z" fill="#04D361"/>
<path d="M693.838 692.69L887.716 646.937C887.686 646.937 826.716 692.69 693.838 692.69Z" fill="#03A14A"/>
<path d="M641.766 533.259C641.766 533.259 673.045 477.785 689.674 450.723L650.635 662.928C650.635 662.928 646.83 576.252 641.766 533.259Z" fill="#03A14A"/>
<path d="M766.434 605.534L650.485 659.748L656.447 604.004L766.434 605.534Z" fill="#03A14A"/>
<path d="M784.303 596.054L784.303 596.053L803.448 491.376L803.448 491.375C804.544 485.314 809.818 480.925 815.989 480.925H856.676C864.633 480.925 870.659 488.143 869.218 495.996L869.218 495.997L850.073 600.673C848.948 606.737 843.671 611.124 837.531 611.124H796.844C788.887 611.124 782.861 603.907 784.303 596.054Z" fill="#04D361" stroke="#04D361"/>
<path d="M842.564 616.064H801.877C793.608 616.064 787.346 608.563 788.844 600.403L807.989 495.726C809.128 489.425 814.611 484.865 821.022 484.865H861.709C869.978 484.865 876.24 492.365 874.742 500.526L855.597 605.203C854.459 611.504 848.976 616.064 842.564 616.064Z" fill="white"/>
<path d="M811.208 521.743L811.208 521.738L815.882 496.176L815.882 496.176L815.883 496.173C816.05 495.216 816.887 494.516 817.877 494.516H825.158C826.434 494.516 827.394 495.673 827.154 496.922L827.153 496.927L822.479 522.488L822.479 522.488L822.478 522.492C822.311 523.449 821.474 524.148 820.484 524.148H813.203C811.927 524.148 810.968 522.992 811.208 521.743Z" fill="#04D361" stroke="#04D361"/>
<path d="M728.204 559.451C728.204 559.451 748.038 558.791 763.228 554.14C769.76 552.13 782.703 549.79 786.987 543.58C791.302 537.309 790.912 523.778 795.227 523.208C798.552 522.758 805.204 533.349 803.496 540.49C801.818 547.48 801.009 551.35 798.462 554.47C797.623 555.521 825.577 557.501 843.284 553.6C855.418 550.93 851.823 562.961 843.584 566.741C843.584 566.741 846.52 574.092 837.921 576.582C837.921 576.582 838.011 586.393 829.802 586.843C828.873 589.123 827.285 593.983 820.184 595.723C809.848 598.274 794.238 599.234 778.508 597.823C770.509 597.103 733.597 603.584 733.597 603.584L728.204 559.451Z" fill="#FFCAD0"/>
<path d="M553.021 623.715C581.335 628.666 750.105 609.584 750.105 609.584L745.911 550.45C745.911 550.45 608.389 556.871 590.053 555.221C529.412 549.85 517.787 617.565 553.021 623.715Z" fill="#04D361"/>
<path d="M762.089 118.238C764.996 115.328 768.231 112.238 772.306 111.788C776.381 111.338 781.025 115.148 779.677 119.048C793.549 113.018 808.05 108.518 822.88 105.638C826.596 104.917 830.61 104.317 834.056 105.968C837.471 107.618 839.599 112.388 837.262 115.358C844.452 118.058 852.422 116.288 860.062 115.388C867.702 114.488 876.421 114.878 881.604 120.549C886.428 125.799 886.518 133.719 886.368 140.86C886.128 150.641 885.888 160.481 883.671 170.022C880.376 184.123 872.706 197.144 861.95 206.835C865.155 195.854 859.433 183.673 850.415 176.622C841.426 169.542 829.831 166.752 818.476 165.462C804.874 163.902 791.032 164.262 777.489 166.482C767.273 168.162 752.682 175.452 742.525 170.832C720.024 160.631 753.401 126.939 762.089 118.238Z" fill="#8F4A3F"/>
</g>
<path d="M1109.91 244.661H969.03C958.244 244.661 949.495 235.901 949.495 225.1V165.936C949.495 155.135 958.244 146.375 969.03 146.375H1109.91C1120.69 146.375 1129.44 155.135 1129.44 165.936V225.1C1129.44 235.901 1120.69 244.661 1109.91 244.661Z" fill="#04D361"/>
<path d="M979.636 238.301V265.243L1008.46 236.381L979.636 238.301Z" fill="#04D361"/>
<path d="M990.871 206.769C997.077 206.769 1002.11 201.732 1002.11 195.518C1002.11 189.304 997.077 184.267 990.871 184.267C984.666 184.267 979.636 189.304 979.636 195.518C979.636 201.732 984.666 206.769 990.871 206.769Z" fill="#E6E6F0"/>
<path d="M1039.47 206.769C1045.67 206.769 1050.7 201.732 1050.7 195.518C1050.7 189.304 1045.67 184.267 1039.47 184.267C1033.26 184.267 1028.23 189.304 1028.23 195.518C1028.23 201.732 1033.26 206.769 1039.47 206.769Z" fill="#E6E6F0"/>
<path d="M1088.07 206.769C1094.27 206.769 1099.3 201.732 1099.3 195.518C1099.3 189.304 1094.27 184.267 1088.07 184.267C1081.86 184.267 1076.83 189.304 1076.83 195.518C1076.83 201.732 1081.86 206.769 1088.07 206.769Z" fill="#E6E6F0"/>
<path d="M1497.42 1045.47L1491.04 1123.2H1524.15L1541.35 1045.47H1497.42Z" fill="#FEC9CF"/>
<path d="M1527.74 1106.94C1527.74 1106.94 1542.12 1130.19 1531.34 1134.33C1520.55 1138.48 1449.55 1138.84 1432.02 1136.23C1414.49 1133.58 1471.12 1109.55 1484.06 1105.77C1497.03 1101.99 1501.2 1121.7 1527.74 1106.94Z" fill="#6842C2"/>
<path d="M1671.5 1045.47L1677.85 1123.2H1644.74L1627.57 1045.47H1671.5Z" fill="#FEC9CF"/>
<path d="M1641.15 1106.94C1641.15 1106.94 1626.77 1130.19 1637.55 1134.33C1648.34 1138.48 1719.34 1138.84 1736.87 1136.23C1754.4 1133.58 1697.77 1109.55 1684.83 1105.77C1671.89 1101.99 1667.69 1121.7 1641.15 1106.94Z" fill="#6842C2"/>
<path d="M1490.77 620.43L1475.76 1086.51H1545.66L1560.73 776.08L1620.62 1095.42L1696.75 1082.73C1696.75 1082.73 1628.02 734.377 1616.34 620.46H1490.77V620.43Z" fill="#D8D8E3"/>
<path d="M1557.27 816.481L1552.78 721.35L1560.23 776.066L1557.27 816.481Z" fill="#194248" stroke="#C9C9D4"/>
<path d="M1593.87 620.43L1674.76 1085.34" stroke="#C9C9D4" stroke-miterlimit="10" stroke-linecap="round" stroke-linejoin="round"/>
<path d="M1577.03 276.876C1591.95 276.906 1607.8 284.736 1612.83 298.807C1616.73 309.638 1613.79 322.419 1619.24 332.56C1623.26 340.06 1631.29 344.891 1634.91 352.571C1642.4 368.532 1627.81 387.494 1632.46 404.475C1636.74 420.196 1656.19 429.196 1657.8 445.427C1658.85 455.778 1651.57 465.709 1642.19 470.209C1632.85 474.74 1621.88 474.709 1611.63 472.999C1586.5 468.769 1562.83 454.968 1537.36 456.288C1526.87 456.828 1515.91 459.888 1506.2 455.838C1499.28 452.958 1494.28 446.868 1489.87 440.807C1484.81 433.847 1479.96 425.926 1480.44 417.346C1481.12 404.745 1492.54 395.924 1499.37 385.333C1506.35 374.503 1509.29 360.972 1507.34 348.221C1498.08 287.617 1532.12 289.477 1536.46 289.387C1540.45 289.297 1553.69 281.166 1558.93 279.636C1564.87 277.926 1570.92 276.876 1577.03 276.876Z" fill="#D38D00"/>
<path d="M1417.13 531.142C1402.72 519.651 1344.11 480.828 1343.54 475.398C1342.46 465.197 1338.9 457.127 1317.06 450.166C1317.06 450.166 1315.32 453.407 1318.35 456.977C1321.61 460.847 1324.25 462.197 1324.25 462.197C1324.25 462.197 1318.44 464.357 1309.87 457.517C1301.3 450.676 1297.73 444.766 1294.08 446.176C1294.08 446.176 1289.82 442.246 1287.79 442.846C1287.79 442.846 1286.29 443.266 1286.56 444.886C1283.17 444.316 1283.77 454.067 1289.67 462.077C1298.18 473.568 1313.19 482.329 1322 485.659C1328.59 488.149 1371.83 552.173 1400.8 559.104C1409.13 561.024 1423.84 536.482 1417.13 531.142Z" fill="#FCDDC6"/>
<path d="M1462.46 474.349C1462.46 474.349 1397.68 519.592 1391.42 530.843C1385.16 542.094 1389.83 572.126 1418.69 552.835C1447.54 533.543 1493.08 498.531 1493.08 498.531L1462.46 474.349Z" fill="#FCDDC6"/>
<path d="M1495.74 433.157C1495.74 433.157 1477.95 437.657 1466.08 451.788C1456.14 463.639 1440.11 482.72 1440.11 482.72L1489.24 520.943C1489.27 520.913 1501.26 451.428 1495.74 433.157Z" fill="#47248F"/>
<path d="M1616.34 620.43H1490.74C1490.74 620.43 1491.25 598.858 1484.27 565.346C1477.26 531.864 1480.76 514.342 1487.75 496.851C1494.76 479.36 1482.26 438.917 1495.74 433.157C1501.23 430.817 1510.76 427.036 1520.1 423.406C1522.47 422.506 1524.81 421.576 1527.05 420.706C1537.9 416.506 1547.04 413.025 1547.04 413.025H1569.66C1569.66 413.025 1585.24 418.186 1601.24 424.576C1603.33 425.416 1605.46 426.286 1607.56 427.156C1607.56 427.186 1607.56 427.186 1607.56 427.186C1615.62 430.577 1623.32 434.147 1628.56 437.417C1645.55 447.918 1616.34 620.43 1616.34 620.43Z" fill="#6842C2"/>
<path d="M1539.43 357.371L1541.82 403.935L1542.51 417.226C1542.81 422.866 1545.27 427.906 1549.11 431.537C1552.91 435.167 1558.06 437.357 1563.7 437.357C1575.62 437.357 1585.21 427.516 1584.91 415.605L1584.31 391.904L1583.29 352.511L1539.43 357.371Z" fill="#FFDFC8"/>
<path d="M1539.43 357.371L1541.82 401.235C1562.41 402.075 1577.45 393.674 1584.34 382.513L1583.32 352.511L1539.43 357.371Z" fill="#DA9F74"/>
<path d="M1523.07 321.309C1523.07 321.309 1521.54 336.49 1523.67 353.261C1526.13 372.673 1528.28 394.904 1553.84 397.004C1584.28 399.494 1594.44 364.452 1594.44 364.452C1594.44 364.452 1608.58 361.152 1610.32 351.491C1612.05 341.8 1601.51 338.89 1597.82 341.95C1597.82 341.95 1593.63 301.088 1555.94 301.088C1522.62 301.088 1523.07 321.309 1523.07 321.309Z" fill="#FFDFC8"/>
<path d="M1607.56 427.156C1607.56 427.186 1607.56 427.186 1607.56 427.156C1581.79 458.598 1551.41 457.128 1551.41 457.128C1527.44 451.878 1520.1 423.406 1520.1 423.406C1522.47 422.506 1524.81 421.576 1527.05 420.706C1537.9 416.506 1547.04 413.025 1547.04 413.025H1569.66C1569.66 413.025 1585.24 418.186 1601.24 424.576C1603.34 425.416 1605.46 426.286 1607.56 427.156Z" fill="#04D361"/>
<path d="M1601.24 424.576C1574.96 453.168 1552.19 450.168 1552.19 450.168C1527.71 440.777 1527.05 420.706 1527.05 420.706C1537.9 416.506 1547.04 413.025 1547.04 413.025H1569.66C1569.66 413.025 1585.24 418.186 1601.24 424.576Z" fill="#FCDDC6"/>
<path d="M1536.19 292.267C1536.19 292.267 1539.7 321.819 1520.73 331.57C1520.73 331.57 1511.23 295.777 1536.19 292.267Z" fill="#D38D00"/>
<path d="M1530.44 295.087C1530.44 295.087 1537.18 320.829 1553.9 322.329C1570.62 323.829 1567.65 337.39 1582.45 338.95C1591.26 339.88 1595.18 349.061 1595.18 349.061C1595.18 349.061 1596.47 339.94 1604.44 336.7C1612.47 333.46 1585.6 265.325 1530.44 295.087Z" fill="#D38D00"/>
<path d="M1558.81 357.041C1558.81 358.661 1560.1 359.951 1561.72 359.951C1563.34 359.951 1564.62 358.661 1564.62 357.041C1564.62 355.421 1563.34 354.131 1561.72 354.131C1560.13 354.131 1558.81 355.451 1558.81 357.041Z" fill="#60423D"/>
<path d="M1532.51 357.038C1532.51 358.658 1533.8 359.948 1535.42 359.948C1537.03 359.948 1538.32 358.658 1538.32 357.038C1538.32 355.419 1537 354.129 1535.42 354.129C1533.8 354.129 1532.51 355.449 1532.51 357.038Z" fill="#60423D"/>
<path d="M1572.32 346.9C1572.32 346.9 1568.01 339.791 1558.81 342.34" stroke="#561E15" stroke-miterlimit="10" stroke-linecap="round" stroke-linejoin="round"/>
<path d="M1542.99 342.25C1542.99 342.25 1536.34 336.191 1529.84 342.82" stroke="#561E15" stroke-miterlimit="10" stroke-linecap="round" stroke-linejoin="round"/>
<path d="M1548.8 349.479C1548.8 349.479 1545.66 357.52 1542.99 362.53C1540.32 367.54 1548.23 369.761 1548.23 369.761" stroke="#DA9F74" stroke-width="0.75" stroke-miterlimit="10" stroke-linecap="round" stroke-linejoin="round"/>
<path d="M1566.24 375.463C1566.24 375.463 1561.12 382.932 1552.19 380.802" stroke="#DA9F74" stroke-width="0.75" stroke-miterlimit="10" stroke-linecap="round" stroke-linejoin="round"/>
<path d="M1597.73 355C1597.73 355 1597.82 345.941 1604.56 348.431" stroke="#DA9F74" stroke-width="0.75" stroke-miterlimit="10" stroke-linecap="round" stroke-linejoin="round"/>
<path d="M1493.32 590.488H1378.27C1375.99 590.488 1374.13 588.628 1374.13 586.347C1374.13 584.067 1375.99 582.207 1378.27 582.207H1493.32C1495.6 582.207 1497.45 584.067 1497.45 586.347C1497.42 588.658 1495.6 590.488 1493.32 590.488Z" fill="#04D361"/>
<path d="M1364.22 492.891L1364.22 492.889C1363.34 489.395 1366.01 485.98 1369.61 485.98H1473.24C1475.8 485.98 1478.03 487.715 1478.63 490.189L1478.63 490.191L1501.31 581.737H1386.24L1364.22 492.891Z" fill="#04D361" stroke="#04D361"/>
<path d="M1493.98 582.237H1377.88L1355.77 493.011C1354.81 489.201 1357.71 485.48 1361.64 485.48H1465.27C1468.06 485.48 1470.49 487.371 1471.15 490.071L1493.98 582.237Z" fill="white"/>
<path d="M1582.36 590.488H1495.3C1493.17 590.488 1491.43 588.747 1491.43 586.617V586.107C1491.43 583.977 1493.17 582.237 1495.3 582.237H1582.36C1584.49 582.237 1586.23 583.977 1586.23 586.107V586.617C1586.26 588.777 1584.52 590.488 1582.36 590.488Z" fill="#04D361"/>
<path d="M1428.64 528.382L1428.64 528.383C1430.72 533.759 1428.93 539.217 1425.01 540.758C1421.08 542.268 1416.1 539.403 1414.03 534.024C1411.96 528.645 1413.74 523.161 1417.67 521.649C1421.59 520.138 1426.57 522.975 1428.64 528.382Z" fill="#04D361" stroke="#04D361"/>
<path d="M1622.69 582.237L1615.14 484.25L1629.64 525.503L1622.69 582.237Z" fill="#47248F"/>
<path d="M1623.68 494.211C1623.68 494.211 1641.59 590.637 1646.03 606.419C1648.91 616.619 1669.82 623.58 1676.38 610.079C1677.82 607.109 1677.49 602.158 1677.34 597.118C1676.32 565.946 1654.54 486.62 1654.54 486.62L1623.68 494.211Z" fill="#FCDDC6"/>
<path d="M1628.59 437.417C1628.59 437.417 1639.29 442.907 1648.28 458.418C1657.27 473.93 1669.67 501.291 1668.89 507.922C1664.22 520.673 1627.3 533.874 1627.3 533.874C1627.3 533.874 1602.65 452.718 1628.59 437.417Z" fill="#6842C2"/>
<path d="M1649.29 587.787C1649.29 587.787 1592.4 586.527 1581.61 580.107C1566.99 571.376 1563.61 575.157 1555.13 573.056C1541.53 569.666 1543.02 572.426 1543.02 572.426C1543.02 572.426 1543.65 580.317 1554.17 581.307C1559.47 581.817 1567.41 584.067 1565.73 585.357C1565.73 585.357 1523.55 589.768 1515.07 590.518C1506.59 591.268 1510.73 597.808 1517.2 599.308C1517.2 599.308 1521.06 604.199 1527.32 602.698C1527.32 602.698 1525.95 605.459 1542.18 605.459C1558.42 605.459 1574.72 596.818 1582.96 600.568C1591.2 604.319 1635.69 621.57 1663.92 617.58C1677.4 615.659 1677.49 609.179 1677.49 602.338C1677.49 590.488 1668.74 588.988 1649.29 587.787Z" fill="#FCDDC6"/>
<path d="M468.889 1045.47L450.103 1123.2H416.996L424.966 1045.47H468.889Z" fill="#BC8567"/>
<path d="M413.402 1106.94C413.402 1106.94 399.021 1130.19 409.807 1134.34C420.593 1138.48 491.601 1138.84 509.128 1136.23C526.655 1133.59 470.029 1109.55 457.086 1105.77C444.142 1101.99 439.948 1121.7 413.402 1106.94Z" fill="#6842C2"/>
<path d="M364.624 1045.47L353.269 1123.2H320.162L320.701 1045.47H364.624Z" fill="#BC8567"/>
<path d="M316.569 1106.94C316.569 1106.94 302.187 1130.19 312.973 1134.34C323.759 1138.48 394.767 1138.84 412.294 1136.23C429.821 1133.59 373.195 1109.55 360.252 1105.77C347.309 1101.99 343.114 1121.7 316.569 1106.94Z" fill="#6842C2"/>
<path d="M308.988 669.513L311.445 1084.32H363.997L401.118 779.561L443.423 903.229L411.755 1084.35H468.92C468.92 1084.35 519.165 927.831 517.128 897.109C515.09 866.357 457.086 656.882 457.086 656.882L308.988 669.513Z" fill="#D8D8E3"/>
<path d="M412.278 810.759L401.597 779.502L406.576 728.917L412.278 810.759Z" fill="#C9C9D4" stroke="#C9C9D4"/>
<path d="M338.652 664.503L335.624 1084.35" stroke="#C9C9D4" stroke-miterlimit="10"/>
<path d="M499.57 479.54C499.57 479.54 533.516 543.834 534.265 563.576C535.014 583.317 513.292 578.907 502.057 561.115C490.821 543.294 472.845 492.771 472.845 492.771L499.57 479.54Z" fill="#BC8567"/>
<path d="M505.922 484.91C505.922 484.91 496.185 502.252 472.845 512.842C468.021 515.032 463.946 509.242 460.92 502.372C457.415 494.361 455.378 484.91 455.378 484.91C455.378 484.91 428.622 402.015 452.202 404.985C452.202 404.985 472.276 406.395 487.016 435.497C490.881 443.087 496.904 458.389 501.937 472.91C503.375 477.05 504.723 481.1 505.922 484.91Z" fill="#47248F"/>
<path d="M505.922 484.91C505.922 484.91 496.185 502.252 472.845 512.842C468.021 515.033 463.947 509.242 460.921 502.372C470.059 498.261 487.346 489.021 501.937 472.91C503.375 477.05 504.724 481.1 505.922 484.91Z" fill="#04D361"/>
<path d="M458.284 661.412C443.453 678.273 345.81 675.783 308.958 669.513C302.487 668.403 296.105 665.913 306.322 643.351C310.157 634.921 308.509 613.229 307.85 583.407C306.561 524.453 289.094 426.646 310.636 415.425C323.549 408.675 350.964 399.794 370.888 393.734C372.086 393.404 373.255 393.044 374.393 392.684C386.018 389.204 394.317 386.893 394.317 386.893C394.317 386.893 403.935 388.304 423.499 394.094C424.548 394.394 425.686 394.754 426.825 395.084C431.918 396.644 437.581 398.444 443.903 400.604C456.157 404.775 465.145 407.325 467.332 411.405C473.175 422.116 470.927 441.107 471.287 468.469C471.766 502.821 471.407 646.531 458.284 661.412Z" fill="#6842C2"/>
<path d="M303.266 516.653L324.328 465.229L308.988 597.508L303.266 516.653Z" fill="#47248F"/>
<path d="M426.825 395.114C426.375 402.375 423.11 408.765 418.196 413.445C413.162 418.246 406.361 421.156 398.961 421.156C383.651 421.156 371.247 408.885 370.947 393.704C372.146 393.374 373.314 393.014 374.453 392.654C386.078 389.174 394.377 386.864 394.377 386.864C394.377 386.864 403.994 388.274 423.559 394.064C424.578 394.454 425.686 394.784 426.825 395.114Z" fill="#04D361"/>
<path d="M439.593 281.929C439.593 281.929 428.499 271.312 411.712 268.786C387.157 265.091 354.827 273.091 348.387 310.628C343.293 332.26 369.629 367.812 379.576 365.742C379.576 365.742 469.114 308.985 439.593 281.929Z" fill="#43302D"/>
<path d="M423.469 333.94L421.072 380.503L420.383 393.794C420.114 399.434 417.627 404.475 413.792 408.105C409.987 411.735 404.834 413.925 399.201 413.925C387.276 413.925 377.689 404.085 377.989 392.174L378.588 368.472L379.606 329.08L423.469 333.94Z" fill="#BC8567"/>
<path d="M423.469 343.211L421.072 387.074C400.489 387.914 385.449 379.513 378.558 368.352L379.576 338.35L423.469 343.211Z" fill="#765441"/>
<path d="M439.798 307.148C439.798 307.148 441.326 322.329 439.199 339.1C436.742 358.512 437.611 381.313 409.028 382.843C378.528 384.463 368.431 350.291 368.431 350.291C368.431 350.291 352.222 347.261 351.113 336.31C350.005 325.359 361.33 324.729 365.015 327.789C365.015 327.789 369.21 286.927 406.901 286.927C440.247 286.957 439.798 307.148 439.798 307.148Z" fill="#BC8567"/>
<path d="M404.923 336.49C404.923 338.169 403.575 339.519 401.897 339.519C400.22 339.519 398.872 338.169 398.872 336.49C398.872 334.81 400.22 333.46 401.897 333.46C403.545 333.46 404.923 334.81 404.923 336.49Z" fill="#60423D"/>
<path d="M434.074 334.929C434.074 336.609 432.726 337.959 431.049 337.959C429.371 337.959 428.023 336.609 428.023 334.929C428.023 333.25 429.371 331.9 431.049 331.9C432.726 331.9 434.074 333.25 434.074 334.929Z" fill="#60423D"/>
<path d="M389.973 327.819C389.973 327.819 394.436 320.439 403.992 323.109" stroke="#43302D" stroke-miterlimit="10" stroke-linecap="round" stroke-linejoin="round"/>
<path d="M420.413 322.989C420.413 322.989 427.303 316.689 434.073 323.589" stroke="#43302D" stroke-miterlimit="10" stroke-linecap="round" stroke-linejoin="round"/>
<path d="M414.391 330.49C414.391 330.49 417.657 338.83 420.443 344.051C423.23 349.241 414.99 351.551 414.99 351.551" stroke="#765441" stroke-width="0.75" stroke-miterlimit="10" stroke-linecap="round" stroke-linejoin="round"/>
<path d="M403.426 360.882C403.426 360.882 410.166 367.421 418.823 363.431" stroke="#765441" stroke-width="0.75" stroke-miterlimit="10" stroke-linecap="round" stroke-linejoin="round"/>
<path d="M364.535 339.847C364.535 339.847 364.445 330.458 357.435 333.008" stroke="#765441" stroke-width="0.75" stroke-miterlimit="10" stroke-linecap="round" stroke-linejoin="round"/>
<path d="M373.794 296.167C373.794 296.167 390.932 313.658 381.554 320.349C371.127 327.789 369.48 338.35 369.48 338.35C369.48 338.35 369.689 334.63 365.045 327.819C360.401 321.009 350.275 296.827 373.794 296.167Z" fill="#43302D"/>
<path d="M279.956 482.99C279.956 482.99 246.01 547.284 245.261 567.026C244.512 586.767 266.234 582.357 277.469 564.566C288.705 546.744 306.681 496.221 306.681 496.221L279.956 482.99Z" fill="#BC8567"/>
<path d="M522.011 541.823C522.011 541.823 471.407 504.32 468.531 502.19C463.647 498.53 456.516 493.22 453.94 491.42C449.865 488.569 426.046 484.429 422.72 484.969C419.425 485.509 410.287 487.069 407.62 488.059C404.954 489.049 408.309 492.47 410.946 494.09C413.582 495.71 425.267 501.77 435.184 503.6C440.697 504.62 445.431 507.411 449.296 510.201C452.382 512.421 505.772 566.935 507.78 568.255L522.011 541.823Z" fill="#BC8567"/>
<path d="M459.363 495.801C459.363 495.801 440.307 477.95 437.461 478.22C434.645 478.49 436.652 482.51 444.142 488.6C446.689 490.671 449.416 493.941 451.693 495.021C456.157 497.121 459.363 495.801 459.363 495.801Z" fill="#BC8567"/>
<path d="M444.143 561.249L444.146 561.249C446.305 561.003 448.084 559.442 448.632 557.33L448.632 557.33L465.231 493.426C465.231 493.425 465.231 493.425 465.231 493.425C466.161 489.836 463.177 486.409 459.482 486.847L444.143 561.249ZM444.143 561.249L374.664 569.56L444.143 561.249ZM390.003 495.157L459.482 486.847L374.664 569.56C370.969 569.998 367.985 566.571 368.915 562.981C368.915 562.981 368.915 562.981 368.915 562.981L385.514 499.077L385.514 499.077C386.062 496.964 387.841 495.404 390 495.158L390.003 495.157Z" fill="#04D361" stroke="#04D361"/>
<path d="M447.291 563.875L377.811 572.186C373.766 572.666 370.501 568.916 371.519 564.986L388.118 501.081C388.717 498.771 390.664 497.061 393.031 496.791L462.511 488.48C466.556 488 469.821 491.75 468.803 495.681L452.204 559.585C451.605 561.865 449.658 563.575 447.291 563.875Z" fill="white"/>
<path d="M394.941 514.214L394.941 514.214L394.94 514.219C394.813 514.725 394.362 515.13 393.798 515.224L390.454 515.613L390.454 515.613C389.514 515.722 388.748 514.845 388.989 513.926L388.989 513.926L392.254 501.387L392.254 501.387L392.256 501.378C392.386 500.837 392.84 500.444 393.386 500.378C393.387 500.378 393.387 500.378 393.387 500.378L396.741 499.988L396.741 499.988C397.68 499.879 398.446 500.756 398.206 501.675L398.206 501.675L394.941 514.214Z" fill="#04D361" stroke="#04D361"/>
<path d="M258.234 548.005C279.446 548.845 345.75 547.465 354.529 544.465C358.304 543.174 367.592 541.224 369.959 537.534C372.356 533.784 374.393 528.083 376.88 527.663C378.797 527.333 378.348 533.514 377.778 535.764C376.7 539.814 375.981 541.914 374.543 543.774C374.063 544.404 390.392 546.745 400.639 544.134C407.68 542.334 406.361 547.975 401.627 550.345C401.627 550.345 403.515 555.265 398.541 556.885C398.541 556.885 399.41 562.346 394.617 562.766C394.107 564.116 392.609 566.546 388.475 567.716C382.482 569.396 372.086 569.366 364.176 569.696C359.502 569.876 269.17 584.007 253.201 579.987C246.549 578.307 251.343 547.735 258.234 548.005Z" fill="#BC8567"/>
<path d="M319.115 491.631C319.115 491.631 317.557 497.541 315.25 503.632C312.673 510.352 309.168 517.252 305.722 516.622C305.722 516.622 258.863 501.801 260.421 497.001C261.59 493.431 263.597 488.78 266.084 483.62C273.844 467.479 286.158 446.418 291.131 438.257C308.089 410.385 315.04 413.925 315.04 413.925C338.799 412.785 319.115 491.631 319.115 491.631Z" fill="#6842C2"/>
<path d="M315.25 503.632C312.673 510.352 309.168 517.253 305.722 516.622C305.722 516.622 258.863 501.801 260.421 497.001C261.59 493.431 263.597 488.781 266.084 483.62C274.713 487.7 297.992 498.411 315.25 503.632Z" fill="#04D361"/>
<path d="M330.111 635.011C330.111 635.011 408.01 622.5 449.955 597.508C449.955 597.508 403.036 644.521 330.111 635.011Z" fill="#47248F"/>
<path d="M1301.63 932.301H1099.06C1089.08 932.301 1081.02 924.201 1081.02 914.24V816.223C1081.02 806.232 1089.11 798.162 1099.06 798.162H1301.63C1311.6 798.162 1319.66 806.262 1319.66 816.223V914.21C1319.69 924.201 1311.6 932.301 1301.63 932.301Z" fill="#6842C2"/>
<path d="M1102.51 897.649C1121.38 897.649 1121.38 875.147 1140.26 875.147C1159.13 875.147 1159.13 845.145 1178.01 845.145C1196.88 845.145 1196.88 856.636 1215.76 856.636C1234.63 856.636 1234.63 828.884 1253.51 828.884C1272.38 828.884 1272.38 872.417 1291.26 872.417" stroke="white" stroke-width="2" stroke-miterlimit="10" stroke-linecap="round" stroke-linejoin="round"/>
<path d="M1108.02 897.648C1108.02 894.618 1105.56 892.158 1102.54 892.158C1099.51 892.158 1097.05 894.618 1097.05 897.648C1097.05 900.677 1099.51 903.137 1102.54 903.137C1105.56 903.137 1108.02 900.677 1108.02 897.648Z" fill="white"/>
<path d="M1296.77 872.446C1296.77 869.416 1294.32 866.957 1291.29 866.957C1288.26 866.957 1285.81 869.416 1285.81 872.446C1285.81 875.476 1288.26 877.935 1291.29 877.935C1294.32 877.935 1296.77 875.476 1296.77 872.446Z" fill="white"/>
<path d="M130.181 224.582H332.508C346.05 224.582 357.046 213.572 357.046 200.011V138.176C357.046 124.615 346.05 113.605 332.508 113.605H130.181C116.639 113.605 105.643 124.615 105.643 138.176V200.011C105.643 213.602 116.639 224.582 130.181 224.582Z" fill="#6842C2"/>
<path d="M326.905 218.222V245.164L298.052 216.302L326.905 218.222Z" fill="#6842C2"/>
<path d="M128.893 140.846H184.98" stroke="white" stroke-width="2.2165" stroke-miterlimit="10" stroke-linecap="round" stroke-linejoin="round"/>
<path d="M204.964 140.846H333.796" stroke="white" stroke-width="2.2165" stroke-miterlimit="10" stroke-linecap="round" stroke-linejoin="round"/>
<path d="M128.893 169.109H233.457" stroke="white" stroke-width="2.2165" stroke-miterlimit="10" stroke-linecap="round" stroke-linejoin="round"/>
<path d="M249.456 169.109H280.406" stroke="white" stroke-width="2.2165" stroke-miterlimit="10" stroke-linecap="round" stroke-linejoin="round"/>
<path d="M297.004 169.109H333.797" stroke="white" stroke-width="2.2165" stroke-miterlimit="10" stroke-linecap="round" stroke-linejoin="round"/>
<path d="M128.893 197.34H152.562" stroke="white" stroke-width="2.2165" stroke-miterlimit="10" stroke-linecap="round" stroke-linejoin="round"/>
<path d="M167.063 197.34H252.452" stroke="white" stroke-width="2.2165" stroke-miterlimit="10" stroke-linecap="round" stroke-linejoin="round"/>
<path d="M1389.5 124.383H1337.58C1327.93 124.383 1320.11 116.553 1320.11 106.892V54.8983C1320.11 45.2376 1327.93 37.407 1337.58 37.407H1389.5C1399.15 37.407 1406.97 45.2376 1406.97 54.8983V106.892C1406.97 116.553 1399.15 124.383 1389.5 124.383Z" fill="#6842C2"/>
<path d="M1393.1 76.4073L1391.81 70.7069C1391.57 69.5968 1390.43 68.9068 1389.32 69.1468L1385.97 69.9269C1385.1 70.1369 1384.23 69.7168 1383.75 68.9668C1382.43 66.8966 1380.81 65.0365 1378.95 63.4764C1378.21 62.8464 1377.97 61.8263 1378.39 60.9562L1380.06 57.506C1380.57 56.4859 1380.12 55.2258 1379.1 54.7458L1373.83 52.1956C1372.81 51.6856 1371.55 52.1356 1371.07 53.1557L1369.28 56.906C1368.89 57.746 1367.96 58.166 1367.06 58.046C1365.95 57.896 1364.78 57.806 1363.64 57.806C1362.48 57.806 1361.34 57.896 1360.23 58.046C1359.3 58.166 1358.4 57.746 1358.01 56.906L1356.21 53.1557C1355.7 52.1356 1354.48 51.6856 1353.46 52.1956L1348.18 54.7458C1347.17 55.2558 1346.72 56.4859 1347.23 57.506L1348.9 60.9562C1349.32 61.8263 1349.05 62.8464 1348.33 63.4764C1346.48 65.0665 1344.83 66.8966 1343.54 68.9668C1343.06 69.7168 1342.19 70.1369 1341.32 69.9269L1337.97 69.1468C1336.86 68.9068 1335.75 69.5968 1335.48 70.7069L1334.19 76.4073C1333.95 77.5174 1334.64 78.6275 1335.75 78.8975L1340.01 79.8575C1339.98 80.4576 1339.92 81.0276 1339.92 81.6277C1339.92 84.4778 1340.42 87.238 1341.35 89.7582C1341.65 90.5983 1341.44 91.5583 1340.72 92.1284L1339.08 93.4485C1338.18 94.1685 1338.03 95.4586 1338.75 96.3587L1342.22 100.949C1342.94 101.849 1344.23 101.999 1345.13 101.279L1346.27 100.349C1347.05 99.7489 1348.12 99.7789 1348.87 100.379C1351.27 102.239 1354 103.679 1356.99 104.549C1357.89 104.819 1358.55 105.599 1358.55 106.559V107.759C1358.55 108.9 1359.48 109.83 1360.62 109.83H1366.46C1367.6 109.83 1368.53 108.9 1368.53 107.759V106.559C1368.53 105.599 1369.19 104.819 1370.09 104.549C1373.08 103.679 1375.81 102.269 1378.21 100.379C1378.98 99.7789 1380.06 99.7189 1380.81 100.349L1381.95 101.279C1382.85 101.999 1384.14 101.849 1384.86 100.949L1388.51 96.3887C1389.23 95.4886 1389.08 94.1985 1388.18 93.4785L1386.53 92.1584C1385.82 91.5883 1385.61 90.6283 1385.91 89.7882C1386.83 87.238 1387.34 84.5079 1387.34 81.6577C1387.34 81.0576 1387.28 80.4876 1387.25 79.8875L1391.51 78.9275C1392.65 78.6275 1393.34 77.5174 1393.1 76.4073ZM1363.55 96.4487C1355.37 96.4487 1348.75 89.8182 1348.75 81.6277C1348.75 73.4371 1355.37 66.8066 1363.55 66.8066C1371.73 66.8066 1378.36 73.4371 1378.36 81.6277C1378.36 89.8182 1371.73 96.4487 1363.55 96.4487Z" fill="white"/>
<path d="M1850.32 468.72C1855.64 435.927 1833.41 405.033 1800.66 399.715C1767.91 394.398 1737.05 416.671 1731.73 449.464C1726.41 482.257 1748.64 513.151 1781.39 518.469C1814.14 523.786 1845 501.513 1850.32 468.72Z" fill="#6842C2"/>
<path d="M1823.91 466.99C1828.19 448.817 1816.96 430.61 1798.81 426.322C1780.66 422.034 1762.47 433.29 1758.18 451.463C1753.89 469.636 1765.13 487.843 1783.28 492.131C1801.43 496.419 1819.62 485.162 1823.91 466.99Z" fill="#6842C2" stroke="white" stroke-width="2" stroke-miterlimit="10" stroke-linecap="round" stroke-linejoin="round"/>
<path d="M1790.98 436.997V459.108L1779.33 470.779" fill="#6842C2"/>
<path d="M1790.98 436.997V459.108L1779.33 470.779" stroke="white" stroke-width="2" stroke-miterlimit="10" stroke-linecap="round" stroke-linejoin="round"/>
<path d="M1790.98 425.296V428.536" stroke="white" stroke-width="2" stroke-miterlimit="10" stroke-linecap="round" stroke-linejoin="round"/>
<path d="M1790.98 489.71V492.92" stroke="white" stroke-width="2" stroke-miterlimit="10" stroke-linecap="round" stroke-linejoin="round"/>
<path d="M1824.75 459.108H1821.51" stroke="white" stroke-width="2" stroke-miterlimit="10" stroke-linecap="round" stroke-linejoin="round"/>
<path d="M1760.45 459.108H1757.22" stroke="white" stroke-width="2" stroke-miterlimit="10" stroke-linecap="round" stroke-linejoin="round"/>
</svg>
