<svg width="32" height="32" viewBox="0 0 32 32" fill="none" xmlns="http://www.w3.org/2000/svg">
<rect x="0.5" y="0.5" width="31" height="31" rx="15.5" stroke="white"/>
<g clip-path="url(#clip0)">
<path d="M20.9358 13.9626C20.9126 13.4371 20.8276 13.0758 20.7059 12.7627C20.5803 12.4304 20.3871 12.1329 20.1339 11.8855C19.8866 11.6343 19.5871 11.4392 19.2586 11.3155C18.9437 11.1938 18.5843 11.1088 18.0588 11.0856C17.5293 11.0605 17.3612 11.0547 16.0183 11.0547C14.6755 11.0547 14.5074 11.0605 13.9799 11.0837C13.4543 11.1068 13.093 11.1919 12.78 11.3136C12.4476 11.4392 12.1501 11.6324 11.9028 11.8855C11.6516 12.1329 11.4565 12.4324 11.3328 12.7608C11.211 13.0758 11.126 13.4351 11.1029 13.9607C11.0777 14.4901 11.0719 14.6582 11.0719 16.0011C11.0719 17.344 11.0777 17.5121 11.1009 18.0396C11.1241 18.5651 11.2091 18.9264 11.3309 19.2395C11.4565 19.5718 11.6516 19.8693 11.9028 20.1167C12.1501 20.3679 12.4496 20.5631 12.7781 20.6867C13.093 20.8084 13.4524 20.8934 13.978 20.9166C14.5054 20.9398 14.6736 20.9456 16.0165 20.9456C17.3593 20.9456 17.5274 20.9398 18.0549 20.9166C18.5805 20.8934 18.9418 20.8084 19.2548 20.6867C19.9195 20.4297 20.445 19.9041 20.702 19.2395C20.8237 18.9245 20.9088 18.5651 20.9319 18.0396C20.9551 17.5121 20.9609 17.344 20.9609 16.0011C20.9609 14.6582 20.959 14.4901 20.9358 13.9626ZM20.0451 18.0009C20.0238 18.484 19.9427 18.7448 19.875 18.9187C19.7088 19.3496 19.3669 19.6916 18.936 19.8578C18.7621 19.9254 18.4993 20.0066 18.0182 20.0278C17.4965 20.051 17.34 20.0568 16.0203 20.0568C14.7006 20.0568 14.5422 20.051 14.0224 20.0278C13.5393 20.0066 13.2785 19.9254 13.1046 19.8578C12.8902 19.7786 12.695 19.653 12.5365 19.4887C12.3723 19.3283 12.2467 19.1351 12.1675 18.9207C12.0998 18.7468 12.0187 18.484 11.9975 18.0029C11.9742 17.4812 11.9685 17.3247 11.9685 16.005C11.9685 14.6853 11.9742 14.5268 11.9975 14.0071C12.0187 13.524 12.0998 13.2632 12.1675 13.0893C12.2467 12.8748 12.3723 12.6797 12.5385 12.5212C12.6988 12.357 12.892 12.2314 13.1065 12.1522C13.2804 12.0846 13.5433 12.0034 14.0243 11.9821C14.546 11.959 14.7026 11.9532 16.0222 11.9532C17.3439 11.9532 17.5003 11.959 18.0201 11.9821C18.5032 12.0034 18.764 12.0846 18.9379 12.1522C19.1524 12.2314 19.3475 12.357 19.506 12.5212C19.6702 12.6816 19.7958 12.8748 19.875 13.0893C19.9427 13.2632 20.0238 13.5259 20.0451 14.0071C20.0683 14.5288 20.0741 14.6853 20.0741 16.005C20.0741 17.3247 20.0683 17.4792 20.0451 18.0009Z" fill="white"/>
<path d="M16.0183 13.4604C14.6156 13.4604 13.4775 14.5985 13.4775 16.0013C13.4775 17.4041 14.6156 18.5421 16.0183 18.5421C17.4211 18.5421 18.5592 17.4041 18.5592 16.0013C18.5592 14.5985 17.4211 13.4604 16.0183 13.4604ZM16.0183 17.6495C15.1083 17.6495 14.3702 16.9114 14.3702 16.0013C14.3702 15.0912 15.1083 14.3531 16.0183 14.3531C16.9284 14.3531 17.6665 15.0912 17.6665 16.0013C17.6665 16.9114 16.9284 17.6495 16.0183 17.6495Z" fill="white"/>
<path d="M19.2529 13.36C19.2529 13.6876 18.9873 13.9532 18.6596 13.9532C18.3321 13.9532 18.0665 13.6876 18.0665 13.36C18.0665 13.0324 18.3321 12.7668 18.6596 12.7668C18.9873 12.7668 19.2529 13.0324 19.2529 13.36Z" fill="white"/>
</g>
<defs>
<clipPath id="clip0">
<rect width="9.89091" height="9.89091" fill="white" transform="translate(11.0546 11.0547)"/>
</clipPath>
</defs>
</svg>
