<svg width="32" height="32" viewBox="0 0 32 32" fill="none" xmlns="http://www.w3.org/2000/svg">
<rect x="0.5" y="0.5" width="31" height="31" rx="15.5" stroke="white"/>
<g clip-path="url(#clip0)">
<path d="M20.8873 9.89087H11.1127C10.4407 9.89087 9.89091 10.4407 9.89091 11.1127V20.8872C9.89091 21.5592 10.4407 22.1091 11.1127 22.1091H20.8873C21.5593 22.1091 22.1091 21.5592 22.1091 20.8872V11.1127C22.1091 10.4407 21.5593 9.89087 20.8873 9.89087ZM13.5564 20.2763H11.7236V14.7781H13.5564V20.2763ZM12.64 13.7396C12.0291 13.7396 11.5404 13.2509 11.5404 12.64C11.5404 12.0291 12.0291 11.5403 12.64 11.5403C13.2509 11.5403 13.7396 12.0291 13.7396 12.64C13.7396 13.2509 13.2509 13.7396 12.64 13.7396ZM20.2764 20.2763H18.4436V17.0385C18.4436 16.5498 18.016 16.1221 17.5273 16.1221C17.0386 16.1221 16.6109 16.5498 16.6109 17.0385V20.2763H14.7782V14.7781H16.6109V15.5112C16.9164 15.0225 17.5884 14.656 18.1382 14.656C19.2989 14.656 20.2764 15.6334 20.2764 16.7941V20.2763Z" fill="white"/>
</g>
<defs>
<clipPath id="clip0">
<rect width="12.2182" height="12.2182" fill="white" transform="translate(9.89091 9.89087)"/>
</clipPath>
</defs>
</svg>
