<svg width="32" height="32" viewBox="0 0 32 32" fill="none" xmlns="http://www.w3.org/2000/svg">
<path d="M27.3137 4.68631C24.2917 1.66425 20.2737 0 16 0C11.7263 0 7.70831 1.66425 4.68631 4.68631C1.66425 7.70831 0 11.7263 0 16C0 20.2737 1.66425 24.2917 4.68631 27.3137C7.70831 30.3358 11.7263 32 16 32C20.2737 32 24.2917 30.3358 27.3137 27.3137C30.3357 24.2916 32 20.2737 32 16C32 11.7263 30.3358 7.70831 27.3137 4.68631ZM16 30.9895C7.73475 30.9895 1.0105 24.2653 1.0105 16C1.0105 7.73475 7.73475 1.0105 16 1.0105C24.2653 1.0105 30.9895 7.73475 30.9895 16C30.9895 24.2653 24.2653 30.9895 16 30.9895Z" fill="white"/>
<path d="M27.272 10.1495C27.1199 10.018 26.8996 9.99554 26.7173 10.0801C26.4559 10.2014 26.1887 10.3079 25.9169 10.3993C26.1865 10.0315 26.4018 9.62292 26.5537 9.18479C26.6163 9.0041 26.5851 8.79879 26.4556 8.6581C26.2936 8.48223 26.0354 8.44523 25.8329 8.5606C25.0945 8.98142 24.2981 9.26723 23.4622 9.41173C22.5274 8.55367 21.3247 8.08423 20.0471 8.08423C17.4025 8.08423 15.2254 10.1244 15.0066 12.7133C14.4602 12.628 13.3913 12.3232 13.1357 12.2397C11.2869 11.61 9.6215 10.5013 8.31856 9.03298C8.24131 8.94592 8.13956 8.88117 8.02512 8.86023C7.79512 8.81823 7.57694 8.93435 7.47856 9.13142C7.15475 9.78035 6.9905 10.4782 6.9905 11.2055C6.9905 12.2113 7.30537 13.1593 7.87256 13.9386C7.69581 13.9054 7.50769 13.9675 7.38431 14.1192C7.31337 14.2065 7.27787 14.3172 7.27369 14.4296C7.27181 14.4809 7.27012 14.5323 7.27012 14.5841C7.27012 15.9477 7.8945 17.187 8.90362 17.9959C8.83394 18.043 8.77519 18.1082 8.73469 18.1885C8.6745 18.3075 8.66781 18.4474 8.70756 18.5746C9.14831 19.9845 10.2433 21.0583 11.6008 21.4984C10.3712 22.2469 8.949 22.6505 7.49587 22.6505C7.36756 22.6505 7.2355 22.6472 7.10344 22.6408C6.85056 22.6292 6.62375 22.8057 6.58025 23.0623C6.54475 23.2716 6.65287 23.4809 6.83569 23.5887C8.69306 24.6843 10.8191 25.2632 12.9851 25.2632C15.5701 25.2632 18.0324 24.4582 20.0855 22.9679C20.3387 22.784 20.3667 22.4166 20.1454 22.1953L20.1452 22.1951C19.967 22.0169 19.6866 21.9977 19.4824 22.1455C17.6527 23.4704 15.407 24.2527 12.985 24.2527C11.6276 24.2527 10.2874 24.0047 9.03156 23.527C10.5505 23.2603 11.9862 22.6015 13.1821 21.6075C13.3266 21.4874 13.4027 21.2974 13.3663 21.1131C13.3198 20.8777 13.1181 20.7112 12.8846 20.7047C11.6542 20.6698 10.5559 19.99 9.966 18.9509C10.2473 18.9374 10.5289 18.8989 10.806 18.8359C11.0174 18.7877 11.1884 18.6189 11.2159 18.4038C11.249 18.1449 11.0826 17.9085 10.8356 17.8477C9.51581 17.5227 8.54519 16.45 8.32687 15.1442C8.71375 15.2349 9.11587 15.275 9.51731 15.2627C9.765 15.2553 9.97462 15.0684 10.0043 14.8149C10.0277 14.6151 9.92162 14.4217 9.74994 14.317C8.65437 13.6494 8.00087 12.4875 8.00087 11.2055C8.00087 10.8922 8.03981 10.5857 8.11706 10.289C9.44162 11.5986 11.0492 12.5966 12.8099 13.1964C12.8261 13.2019 14.5657 13.7435 15.2247 13.7462C15.2677 13.7472 15.4731 13.7563 15.4734 13.7563C15.6852 13.7649 15.8905 13.6364 15.9705 13.4234C15.9935 13.3623 16.0019 13.2965 16.0003 13.2313C15.9996 13.2019 15.9989 13.1724 15.9989 13.1428C15.9989 10.9107 17.8148 9.09479 20.0469 9.09479C21.1399 9.09479 22.1643 9.52429 22.9318 10.304C23.0429 10.417 23.1994 10.4726 23.3564 10.4509C23.8706 10.3795 24.3724 10.2618 24.8587 10.0989C24.5998 10.3829 24.2946 10.6262 23.9523 10.8179C23.7216 10.947 23.6237 11.2277 23.7324 11.4688L23.7399 11.4853C23.8289 11.6823 24.0331 11.8006 24.2484 11.7803C24.6663 11.7404 25.0785 11.6716 25.4829 11.5746C25.1251 11.9436 24.7317 12.2788 24.3049 12.5778C24.1656 12.6754 24.0856 12.837 24.0914 13.0069L24.0924 13.0388C24.0936 13.0734 24.0949 13.108 24.0949 13.1428V13.1885C24.0833 16.0191 23.0036 18.6044 21.2407 20.5631C21.0606 20.7632 21.0718 21.0704 21.2622 21.2608C21.4692 21.4678 21.8072 21.4577 22.0031 21.24C23.9838 19.0395 25.0796 16.2288 25.1052 13.2462C26.0066 12.5747 26.7674 11.7539 27.3694 10.8029C27.5018 10.5938 27.4646 10.3161 27.272 10.1495Z" fill="white"/>
</svg>
